<svg width="262" height="210" viewBox="0 0 262 210" fill="none" xmlns="http://www.w3.org/2000/svg">
<path d="M117.9 26.4H144.1C146.512 26.4 148.467 24.4449 148.467 22.0333C148.467 19.6217 146.512 17.6666 144.1 17.6666H117.9C115.488 17.6666 113.533 19.6217 113.533 22.0333C113.533 24.4449 115.488 26.4 117.9 26.4Z" fill="#717784"/>
<path d="M192.133 26.4H240.167C242.578 26.4 244.533 24.4449 244.533 22.0333C244.533 19.6217 242.578 17.6666 240.167 17.6666H192.133C189.722 17.6666 187.767 19.6217 187.767 22.0333C187.767 24.4449 189.722 26.4 192.133 26.4Z" fill="#717784"/>
<path d="M240.167 0.200073H21.8333C9.7811 0.21451 0.0144367 9.98117 0 22.0334V187.967C0.0144367 200.019 9.7811 209.786 21.8333 209.8H240.167C252.219 209.786 261.986 200.019 262 187.967V22.0334C261.986 9.98117 252.219 0.21451 240.167 0.200073ZM21.8333 8.93341H240.167C247.402 8.93341 253.267 14.7985 253.267 22.0334V35.1334H8.73333V22.0334C8.73333 14.7985 14.5984 8.93341 21.8333 8.93341ZM240.167 201.067H21.8333C14.5984 201.067 8.73333 195.202 8.73333 187.967V43.8667H253.267V187.967C253.267 195.202 247.402 201.067 240.167 201.067Z" fill="#717784"/>
<path d="M21.8335 26.4C24.2451 26.4 26.2001 24.4449 26.2001 22.0333C26.2001 19.6217 24.2451 17.6666 21.8335 17.6666C19.4218 17.6666 17.4668 19.6217 17.4668 22.0333C17.4668 24.4449 19.4218 26.4 21.8335 26.4Z" fill="#717784"/>
<path d="M39.3003 26.4C41.7119 26.4 43.6669 24.4449 43.6669 22.0333C43.6669 19.6217 41.7119 17.6666 39.3003 17.6666C36.8886 17.6666 34.9336 19.6217 34.9336 22.0333C34.9336 24.4449 36.8886 26.4 39.3003 26.4Z" fill="#717784"/>
<path d="M56.7671 26.4C59.1787 26.4 61.1337 24.4449 61.1337 22.0333C61.1337 19.6217 59.1787 17.6666 56.7671 17.6666C54.3554 17.6666 52.4004 19.6217 52.4004 22.0333C52.4004 24.4449 54.3554 26.4 56.7671 26.4Z" fill="#717784"/>
<path d="M78.5997 139.934C78.5997 142.345 80.5547 144.3 82.9663 144.3C85.378 144.3 87.333 142.345 87.333 139.934V131.2H96.0663C98.478 131.2 100.433 129.245 100.433 126.834C100.433 124.422 98.478 122.467 96.0663 122.467H87.333V113.734C87.333 111.322 85.378 109.367 82.9663 109.367C80.5547 109.367 78.5997 111.322 78.5997 113.734V122.467H55.845L86.6867 72.355C87.7956 70.3172 87.1174 67.7682 85.1426 66.5507C83.1678 65.3333 80.5858 65.8726 79.2634 67.7787L48.4085 117.895C46.7528 120.59 46.6834 123.969 48.2272 126.73C49.7709 129.49 52.6865 131.2 55.8493 131.2H78.5997V139.934Z" fill="#717784"/>
<path d="M209.6 122.467H200.866V113.733C200.866 111.322 198.911 109.367 196.5 109.367C194.088 109.367 192.133 111.322 192.133 113.733V122.467H169.378L200.22 72.3549C201.141 71.0268 201.254 69.2983 200.512 67.8621C199.77 66.4259 198.296 65.5169 196.679 65.4994C195.063 65.4819 193.569 66.3588 192.797 67.7787L161.942 117.895C160.286 120.59 160.217 123.969 161.76 126.73C163.304 129.49 166.22 131.2 169.383 131.2H192.133V139.933C192.133 142.345 194.088 144.3 196.5 144.3C198.911 144.3 200.866 142.345 200.866 139.933V131.2H209.6C212.011 131.2 213.966 129.245 213.966 126.833C213.966 124.422 212.011 122.467 209.6 122.467Z" fill="#717784"/>
<path d="M126.633 144.3H135.366C145.013 144.3 152.833 136.48 152.833 126.833V83.1667C152.833 73.5202 145.013 65.7001 135.366 65.7001H126.633C116.986 65.7001 109.166 73.5202 109.166 83.1667V126.833C109.166 136.48 116.986 144.3 126.633 144.3ZM117.899 83.1667C117.899 78.3435 121.809 74.4334 126.633 74.4334H135.366C140.189 74.4334 144.099 78.3435 144.099 83.1667V126.833C144.099 131.657 140.189 135.567 135.366 135.567H126.633C121.809 135.567 117.899 131.657 117.899 126.833V83.1667Z" fill="#717784"/>
<path d="M183.4 166.133H78.6001C76.1884 166.133 74.2334 168.088 74.2334 170.5C74.2334 172.912 76.1884 174.867 78.6001 174.867H183.4C185.812 174.867 187.767 172.912 187.767 170.5C187.767 168.088 185.812 166.133 183.4 166.133Z" fill="#717784"/>
<path d="M144.1 183.6H117.9C115.488 183.6 113.533 185.555 113.533 187.967C113.533 190.378 115.488 192.333 117.9 192.333H144.1C146.512 192.333 148.467 190.378 148.467 187.967C148.467 185.555 146.512 183.6 144.1 183.6Z" fill="#717784"/>
</svg>
