<svg width="28" height="41" viewBox="0 0 28 41" fill="none" xmlns="http://www.w3.org/2000/svg">
<path d="M25.2133 15.7848L11.88 2.45146C9.28333 -0.148535 5.05 -0.148535 2.45333 2.45146C1.19333 3.70813 0.5 5.3848 0.5 7.1648C0.5 8.9448 1.19333 10.6215 2.45333 11.8781L11.0733 20.4981L2.45333 29.1181C1.19333 30.3781 0.5 32.0515 0.5 33.8315C0.5 35.6115 1.19333 37.2848 2.45333 38.5448C3.71333 39.8048 5.38667 40.4981 7.16667 40.4981C8.94667 40.4981 10.62 39.8048 11.88 38.5448L25.2133 25.2115C26.4733 23.9548 27.1667 22.2781 27.1667 20.4981C27.1667 18.7181 26.4733 17.0415 25.2133 15.7848ZM22.8567 22.8548L9.52333 36.1881C8.26 37.4481 6.07333 37.4481 4.81 36.1881C3.51 34.8881 3.51 32.7748 4.81 31.4748L15.7867 20.4981L4.81 9.52147C4.18 8.89147 3.83333 8.0548 3.83333 7.1648C3.83333 6.2748 4.18 5.43813 4.81 4.80813C5.46 4.15813 6.31333 3.83147 7.16667 3.83147C8.02 3.83147 8.87333 4.15813 9.52333 4.8048L22.8567 18.1381C23.4867 18.7715 23.8333 19.6081 23.8333 20.4981C23.8333 21.3881 23.4867 22.2248 22.8567 22.8548Z" fill="#717784" fill-opacity="0.6"/>
</svg>
