<svg width="32" height="32" viewBox="0 0 32 32" fill="none" xmlns="http://www.w3.org/2000/svg">
<path d="M28.8966 24.7381C28.0395 23.974 27.289 23.098 26.6655 22.1337C25.9848 20.8026 25.5768 19.349 25.4655 17.8581V13.467C25.4714 11.1253 24.622 8.8621 23.0768 7.10255C21.5317 5.34299 19.3972 4.20822 17.0744 3.91146V2.76479C17.0744 2.45007 16.9494 2.14823 16.7268 1.92569C16.5043 1.70315 16.2025 1.57812 15.8877 1.57812C15.573 1.57812 15.2712 1.70315 15.0486 1.92569C14.8261 2.14823 14.7011 2.45007 14.7011 2.76479V3.92924C12.3991 4.24739 10.2904 5.38902 8.76554 7.14266C7.2407 8.89631 6.40305 11.1431 6.40774 13.467V17.8581C6.29641 19.349 5.88843 20.8026 5.20774 22.1337C4.59519 23.0958 3.8568 23.9717 3.01218 24.7381C2.91737 24.8214 2.84138 24.924 2.78927 25.0389C2.73716 25.1539 2.71012 25.2786 2.70996 25.4048V26.6137C2.70996 26.8494 2.80361 27.0755 2.97031 27.2422C3.13701 27.4089 3.3631 27.5026 3.59885 27.5026H28.31C28.5457 27.5026 28.7718 27.4089 28.9385 27.2422C29.1052 27.0755 29.1988 26.8494 29.1988 26.6137V25.4048C29.1987 25.2786 29.1717 25.1539 29.1195 25.0389C29.0674 24.924 28.9914 24.8214 28.8966 24.7381ZM4.55885 25.7248C5.38588 24.9259 6.11405 24.0306 6.72774 23.0581C7.58517 21.4505 8.08546 19.6768 8.19441 17.8581V13.467C8.15915 12.4253 8.33389 11.3871 8.70822 10.4143C9.08255 9.44147 9.64882 8.55393 10.3733 7.80453C11.0978 7.05512 11.9656 6.45916 12.9252 6.05215C13.8848 5.64513 14.9165 5.43538 15.9588 5.43538C17.0012 5.43538 18.0329 5.64513 18.9925 6.05215C19.9521 6.45916 20.8199 7.05512 21.5444 7.80453C22.2689 8.55393 22.8351 9.44147 23.2095 10.4143C23.5838 11.3871 23.7585 12.4253 23.7233 13.467V17.8581C23.8322 19.6768 24.3325 21.4505 25.19 23.0581C25.8037 24.0306 26.5318 24.9259 27.3589 25.7248H4.55885Z" fill="#333333"/>
<path d="M15.9999 30.471C16.5598 30.4581 17.0972 30.2476 17.5169 29.8767C17.9366 29.5058 18.2116 28.9984 18.2932 28.4443H13.6177C13.7017 29.0135 13.9895 29.5328 14.4277 29.9056C14.8659 30.2784 15.4246 30.4793 15.9999 30.471Z" fill="#333333"/>
</svg>
