<svg width="70" height="70" viewBox="0 0 70 70" fill="none" xmlns="http://www.w3.org/2000/svg">
<path d="M35 0H19.8333C19.189 0 18.6667 0.522379 18.6667 1.16667V9.33333H1.16667C0.522379 9.33333 0 9.85571 0 10.5V68.8333C0 69.4776 0.522379 70 1.16667 70H35C35.6443 70 36.1667 69.4776 36.1667 68.8333V1.16667C36.1667 0.522379 35.6443 0 35 0ZM33.8333 60.6667H21V58.3333H33.8333V60.6667ZM2.33333 17.5H18.6667V52.5H2.33333V17.5ZM33.8333 12.8333H21V9.33333H33.8333V12.8333ZM2.33333 54.8333H18.6667V58.3333H2.33333V54.8333ZM21 56V15.1667H33.8333V56H21ZM33.8333 2.33333V7H21V2.33333H33.8333ZM18.6667 11.6667V15.1667H2.33333V11.6667H18.6667ZM2.33333 60.6667H18.6667V67.6667H2.33333V60.6667ZM21 67.6667V63H33.8333V67.6667H21Z" fill="#00409E"/>
<path d="M69.9626 63.8727L55.9626 10.206C55.8846 9.90523 55.6897 9.64831 55.4209 9.49165C55.1525 9.33557 54.833 9.29284 54.5328 9.37316L37.0327 14.0398C36.413 14.205 36.0427 14.8396 36.2045 15.4606L50.2045 69.1272C50.2825 69.428 50.4779 69.6849 50.7468 69.841C51.0151 69.9965 51.3347 70.0387 51.6343 69.9578L69.1343 65.2911C69.753 65.1259 70.1227 64.4925 69.9626 63.8727ZM40.6142 23.1208L55.8601 19.0563L56.4086 21.156L41.1639 25.2268L40.6142 23.1208ZM56.9977 23.4199L63.7641 49.3754L48.524 53.4416L41.7575 27.4844L56.9977 23.4199ZM64.3583 51.6341L65.5529 56.2124L50.307 60.277L49.117 55.7003L64.3583 51.6341ZM54.0007 11.9292L55.271 16.7998L40.0252 20.8632L38.756 15.9949L54.0007 11.9292ZM52.1664 67.404L50.896 62.5334L66.1419 58.4677L67.4111 63.3361L52.1664 67.404Z" fill="#00409E"/>
<path d="M15.1663 21H5.83293C5.18864 21 4.66626 21.5224 4.66626 22.1667V31.5C4.66626 32.1443 5.18864 32.6667 5.83293 32.6667H15.1663C15.8105 32.6667 16.3329 32.1443 16.3329 31.5V22.1667C16.3329 21.5224 15.8105 21 15.1663 21ZM13.9996 30.3333H6.99959V23.3333H13.9996V30.3333Z" fill="#00409E"/>
</svg>
