<svg width="70" height="68" viewBox="0 0 70 68" fill="none" xmlns="http://www.w3.org/2000/svg">
<path d="M5.64505 61.0731H35V58.8146H5.64505C3.7745 58.8146 2.25796 57.298 2.25796 55.4275V5.75003C2.25796 3.87891 3.7745 2.36294 5.64505 2.36294H55.3225C57.1939 2.36294 58.7096 3.87891 58.7096 5.75003V31.7176H60.9681V5.75003C60.9644 2.63376 58.439 0.108659 55.3225 0.10498H5.64505C2.52935 0.108659 0.00396184 2.63376 0 5.75003V55.4275C0.00396184 58.5437 2.52935 61.0688 5.64505 61.0731Z" fill="#00409E"/>
<path d="M4.51575 4.62134H6.77343V6.87901H4.51575V4.62134Z" fill="#00409E"/>
<path d="M9.03308 4.62134H11.2916V6.87901H9.03308V4.62134Z" fill="#00409E"/>
<path d="M13.5485 4.62134H15.8067V6.87901H13.5485V4.62134Z" fill="#00409E"/>
<path d="M4.51575 9.13696H56.4509V11.3955H4.51575V9.13696Z" fill="#00409E"/>
<path d="M16.1379 13.9841L13.2701 16.8519C10.846 15.2471 7.59984 15.7395 5.76014 17.991C3.92071 20.2421 4.08569 23.5214 6.14132 25.5768C8.19666 27.6329 11.4762 27.7979 13.7277 25.9582C15.9788 24.1188 16.4715 20.8721 14.8664 18.4486L17.7339 15.5808L16.1379 13.9841ZM10.1615 24.9434C8.29118 24.9434 6.77465 23.4272 6.77465 21.5566C6.77465 19.6858 8.29118 18.1698 10.1615 18.1698C10.6652 18.1715 11.1607 18.287 11.6126 18.508L9.36371 20.7572L10.9598 22.3538L13.2104 20.106C13.4314 20.5577 13.5471 21.0532 13.5488 21.5566C13.5488 23.4272 12.0329 24.9434 10.1615 24.9434Z" fill="#00409E"/>
<path d="M19.1938 18.1697H38.387V20.4274H19.1938V18.1697Z" fill="#00409E"/>
<path d="M19.1938 22.6858H27.0969V24.9435H19.1938V22.6858Z" fill="#00409E"/>
<path d="M29.3547 22.6858H45.1608V24.9435H29.3547V22.6858Z" fill="#00409E"/>
<path d="M40.6448 18.1697H51.9352V20.4274H40.6448V18.1697Z" fill="#00409E"/>
<path d="M16.1379 27.5325L13.2701 30.4003C10.846 28.7954 7.59984 29.2878 5.76014 31.5393C3.92071 33.7908 4.08569 37.0697 6.14132 39.1257C8.19666 41.1813 11.4762 41.3463 13.7277 39.5066C15.9788 37.6668 16.4715 34.4213 14.8664 31.9969L17.7339 29.1291L16.1379 27.5325ZM10.1615 38.492C8.29118 38.492 6.77465 36.9755 6.77465 35.105C6.77465 33.2341 8.29118 31.7176 10.1615 31.7176C10.6652 31.7196 11.1607 31.8353 11.6126 32.0563L9.36371 34.3061L10.9598 35.9021L13.2104 33.6541C13.4314 34.106 13.5471 34.6015 13.5488 35.105C13.5488 36.9755 12.0329 38.492 10.1615 38.492Z" fill="#00409E"/>
<path d="M19.1938 31.7178H38.387V33.976H19.1938V31.7178Z" fill="#00409E"/>
<path d="M19.1938 36.2341H27.0969V38.4921H19.1938V36.2341Z" fill="#00409E"/>
<path d="M29.3547 36.2341H38.3866V38.4921H29.3547V36.2341Z" fill="#00409E"/>
<path d="M40.6448 31.7178H45.1607V33.976H40.6448V31.7178Z" fill="#00409E"/>
<path d="M16.1379 41.0806L13.2701 43.9484C10.846 42.3435 7.59984 42.8359 5.76014 45.0874C3.92071 47.3389 4.08569 50.6179 6.14132 52.6738C8.19666 54.7297 11.4762 54.8941 13.7277 53.0547C15.9788 51.215 16.4715 47.9691 14.8664 45.5447L17.7339 42.6772L16.1379 41.0806ZM10.1615 52.0402C8.29118 52.0402 6.77465 50.5236 6.77465 48.6531C6.77465 46.7822 8.29118 45.266 10.1615 45.266C10.6652 45.2677 11.1607 45.3831 11.6126 45.6044L9.36371 47.8542L10.9598 49.4502L13.2104 47.2022C13.4314 47.6541 13.5471 48.1499 13.5488 48.6531C13.5488 50.5236 12.0329 52.0402 10.1615 52.0402Z" fill="#00409E"/>
<path d="M19.1938 45.2661H33.871V47.5246H19.1938V45.2661Z" fill="#00409E"/>
<path d="M19.1938 49.7825H27.0969V52.0404H19.1938V49.7825Z" fill="#00409E"/>
<path d="M29.3547 49.7825H33.8707V52.0404H29.3547V49.7825Z" fill="#00409E"/>
<path d="M53.0645 67.8473C62.4181 67.8473 69.9996 60.2643 69.9996 50.9116C69.9996 41.5579 62.4181 33.9758 53.0645 33.9758C43.7109 33.9758 36.1288 41.5579 36.1288 50.9116C36.1398 60.2601 43.7154 67.836 53.0645 67.8473ZM53.0645 36.2341C61.1701 36.2341 67.742 42.8054 67.742 50.9116C67.742 59.0178 61.1701 65.5887 53.0645 65.5887C44.958 65.5887 38.3865 59.0178 38.3865 50.9116C38.3961 42.8093 44.9617 36.2431 53.0645 36.2341Z" fill="#00409E"/>
<path d="M46.1776 51.5355L44.1565 52.5447L46.4147 57.0609C46.5766 57.3858 46.8856 57.613 47.2442 57.671C47.3025 57.6801 47.3608 57.6849 47.4194 57.6857C47.7185 57.6857 48.0057 57.5666 48.2179 57.3549L61.7657 43.8066L60.1697 42.21L47.7284 54.6507L46.1776 51.5355Z" fill="#00409E"/>
</svg>
