<svg width="70" height="70" viewBox="0 0 70 70" fill="none" xmlns="http://www.w3.org/2000/svg">
<path d="M5.64505 62.0731H35V59.8146H5.64505C3.7745 59.8146 2.25796 58.298 2.25796 56.4275V6.75003C2.25796 4.87891 3.7745 3.36294 5.64505 3.36294H55.3225C57.1939 3.36294 58.7096 4.87891 58.7096 6.75003V32.7176H60.9681V6.75003C60.9644 3.63376 58.439 1.10866 55.3225 1.10498H5.64505C2.52935 1.10866 0.00396184 3.63376 0 6.75003V56.4275C0.00396184 59.5437 2.52935 62.0688 5.64505 62.0731Z" fill="#00409E"/>
<path d="M4.51562 5.62134H6.7733V7.87901H4.51562V5.62134Z" fill="#00409E"/>
<path d="M9.0332 5.62134H11.2917V7.87901H9.0332V5.62134Z" fill="#00409E"/>
<path d="M13.5483 5.62134H15.8066V7.87901H13.5483V5.62134Z" fill="#00409E"/>
<path d="M4.51562 10.137H56.4507V12.3955H4.51562V10.137Z" fill="#00409E"/>
<path d="M16.1379 14.9841L13.2701 17.8519C10.846 16.2471 7.59984 16.7395 5.76014 18.991C3.92071 21.2421 4.08569 24.5214 6.14132 26.5768C8.19666 28.6329 11.4762 28.7979 13.7277 26.9582C15.9788 25.1188 16.4715 21.8721 14.8664 19.4486L17.7339 16.5808L16.1379 14.9841ZM10.1615 25.9434C8.29118 25.9434 6.77465 24.4272 6.77465 22.5566C6.77465 20.6858 8.29118 19.1698 10.1615 19.1698C10.6652 19.1715 11.1607 19.287 11.6126 19.508L9.36371 21.7572L10.9598 23.3538L13.2104 21.106C13.4314 21.5577 13.5471 22.0532 13.5488 22.5566C13.5488 24.4272 12.0329 25.9434 10.1615 25.9434Z" fill="#00409E"/>
<path d="M19.1938 19.1697H38.387V21.4274H19.1938V19.1697Z" fill="#00409E"/>
<path d="M19.1938 23.6858H27.0969V25.9435H19.1938V23.6858Z" fill="#00409E"/>
<path d="M29.3547 23.6858H45.1608V25.9435H29.3547V23.6858Z" fill="#00409E"/>
<path d="M40.6448 19.1697H51.9352V21.4274H40.6448V19.1697Z" fill="#00409E"/>
<path d="M16.1379 28.5325L13.2701 31.4003C10.846 29.7954 7.59984 30.2878 5.76014 32.5393C3.92071 34.7908 4.08569 38.0697 6.14132 40.1257C8.19666 42.1813 11.4762 42.3463 13.7277 40.5066C15.9788 38.6668 16.4715 35.4213 14.8664 32.9969L17.7339 30.1291L16.1379 28.5325ZM10.1615 39.492C8.29118 39.492 6.77465 37.9755 6.77465 36.105C6.77465 34.2341 8.29118 32.7176 10.1615 32.7176C10.6652 32.7196 11.1607 32.8353 11.6126 33.0563L9.36371 35.3061L10.9598 36.9021L13.2104 34.6541C13.4314 35.106 13.5471 35.6015 13.5488 36.105C13.5488 37.9755 12.0329 39.492 10.1615 39.492Z" fill="#00409E"/>
<path d="M19.1938 32.7178H38.387V34.976H19.1938V32.7178Z" fill="#00409E"/>
<path d="M19.1938 37.2341H27.0969V39.4921H19.1938V37.2341Z" fill="#00409E"/>
<path d="M29.3547 37.2341H38.3866V39.4921H29.3547V37.2341Z" fill="#00409E"/>
<path d="M40.6448 32.7178H45.1607V34.976H40.6448V32.7178Z" fill="#00409E"/>
<path d="M16.1379 42.0806L13.2701 44.9484C10.846 43.3435 7.59984 43.8359 5.76014 46.0874C3.92071 48.3389 4.08569 51.6179 6.14132 53.6738C8.19666 55.7297 11.4762 55.8941 13.7277 54.0547C15.9788 52.215 16.4715 48.9691 14.8664 46.5447L17.7339 43.6772L16.1379 42.0806ZM10.1615 53.0402C8.29118 53.0402 6.77465 51.5236 6.77465 49.6531C6.77465 47.7822 8.29118 46.266 10.1615 46.266C10.6652 46.2677 11.1607 46.3831 11.6126 46.6044L9.36371 48.8542L10.9598 50.4502L13.2104 48.2022C13.4314 48.6541 13.5471 49.1499 13.5488 49.6531C13.5488 51.5236 12.0329 53.0402 10.1615 53.0402Z" fill="#00409E"/>
<path d="M19.1938 46.2661H33.871V48.5246H19.1938V46.2661Z" fill="#00409E"/>
<path d="M19.1938 50.7825H27.0969V53.0404H19.1938V50.7825Z" fill="#00409E"/>
<path d="M29.3547 50.7825H33.8707V53.0404H29.3547V50.7825Z" fill="#00409E"/>
<path d="M53.0644 68.8473C62.418 68.8473 69.9995 61.2643 69.9995 51.9116C69.9995 42.5579 62.418 34.9758 53.0644 34.9758C43.7108 34.9758 36.1287 42.5579 36.1287 51.9116C36.1397 61.2601 43.7153 68.836 53.0644 68.8473ZM53.0644 37.2341C61.17 37.2341 67.7418 43.8054 67.7418 51.9116C67.7418 60.0178 61.17 66.5887 53.0644 66.5887C44.9579 66.5887 38.3863 60.0178 38.3863 51.9116C38.396 43.8093 44.9616 37.2431 53.0644 37.2341Z" fill="#00409E"/>
<path d="M43.564 58.4976L45.4062 53.432H51.1952L53.0374 58.4976C53.2577 59.1033 53.9274 59.4157 54.533 59.1953C55.1387 58.9749 55.4511 58.3053 55.2307 57.6996L50.963 45.9653C50.5561 44.8456 49.4921 44.1001 48.3007 44.1001C47.1093 44.1001 46.0453 44.8456 45.6384 45.9653L41.3707 57.6996C41.1503 58.3053 41.4627 58.9749 42.0684 59.1953C42.674 59.4157 43.3437 59.1033 43.564 58.4976ZM47.834 46.7598C47.9217 46.5821 48.1026 46.4696 48.3007 46.4696C48.4988 46.4696 48.6797 46.5821 48.7674 46.7598L50.347 51.0986H46.2544L47.834 46.7598Z" fill="#00409E"/>
<path d="M56.4667 52.2655H58.8V54.5988C58.8 55.2431 59.3224 55.7655 59.9667 55.7655C60.611 55.7655 61.1334 55.2431 61.1334 54.5988V52.2655H63.4667C64.111 52.2655 64.6334 51.7431 64.6334 51.0988C64.6334 50.4545 64.111 49.9321 63.4667 49.9321H61.1334V47.5988C61.1334 46.9545 60.611 46.4321 59.9667 46.4321C59.3224 46.4321 58.8 46.9545 58.8 47.5988V49.9321H56.4667C55.8224 49.9321 55.3 50.4545 55.3 51.0988C55.3 51.7431 55.8224 52.2655 56.4667 52.2655Z" fill="#00409E"/>
</svg>
