<svg width="15" height="15" viewBox="0 0 15 15" fill="none" xmlns="http://www.w3.org/2000/svg">
<path d="M1.20965 13.3014H7.5V12.8174H1.20965C0.808821 12.8174 0.483849 12.4925 0.483849 12.0916V1.44647C0.483849 1.04552 0.808821 0.720666 1.20965 0.720666H11.8548C12.2558 0.720666 12.5806 1.04552 12.5806 1.44647V7.01095H13.0646V1.44647C13.0638 0.778698 12.5227 0.237605 11.8548 0.236816H1.20965C0.542003 0.237605 0.000848965 0.778698 0 1.44647V12.0916C0.000848965 12.7594 0.542003 13.3005 1.20965 13.3014Z" fill="#00409E"/>
<path d="M0.967773 1.20459H1.45156V1.68838H0.967773V1.20459Z" fill="#00409E"/>
<path d="M1.93555 1.20459H2.41952V1.68838H1.93555V1.20459Z" fill="#00409E"/>
<path d="M2.90332 1.20459H3.38723V1.68838H2.90332V1.20459Z" fill="#00409E"/>
<path d="M0.967773 2.17236H12.0967V2.65633H0.967773V2.17236Z" fill="#00409E"/>
<path d="M3.45745 3.21094L2.84293 3.82547C2.32348 3.48158 1.62787 3.58709 1.23365 4.06954C0.83949 4.55194 0.874843 5.25464 1.31533 5.69507C1.75577 6.13568 2.45853 6.17104 2.94098 5.77681C3.42337 5.38265 3.52895 4.68692 3.185 4.1676L3.79947 3.55307L3.45745 3.21094ZM2.17679 5.55936C1.77602 5.55936 1.45105 5.23445 1.45105 4.83361C1.45105 4.43272 1.77602 4.10787 2.17679 4.10787C2.28473 4.10823 2.39091 4.13297 2.48775 4.18033L2.00585 4.6623L2.34786 5.00444L2.83013 4.52277C2.87749 4.61955 2.90229 4.72573 2.90266 4.83361C2.90266 5.23445 2.57781 5.55936 2.17679 5.55936Z" fill="#00409E"/>
<path d="M4.1123 4.10791H8.22511V4.5917H4.1123V4.10791Z" fill="#00409E"/>
<path d="M4.1123 5.07568H5.80581V5.55947H4.1123V5.07568Z" fill="#00409E"/>
<path d="M6.29102 5.07568H9.67803V5.55947H6.29102V5.07568Z" fill="#00409E"/>
<path d="M8.70898 4.10791H11.1283V4.5917H8.70898V4.10791Z" fill="#00409E"/>
<path d="M3.45745 6.11426L2.84293 6.72879C2.32348 6.3849 1.62787 6.49041 1.23365 6.97286C0.83949 7.45532 0.874843 8.15796 1.31533 8.59851C1.75577 9.039 2.45853 9.07436 2.94098 8.68013C3.42337 8.28591 3.52895 7.59043 3.185 7.07092L3.79947 6.45639L3.45745 6.11426ZM2.17679 8.46274C1.77602 8.46274 1.45105 8.13777 1.45105 7.73693C1.45105 7.33604 1.77602 7.01107 2.17679 7.01107C2.28473 7.01149 2.39091 7.03629 2.48775 7.08365L2.00585 7.56575L2.34786 7.90776L2.83013 7.42603C2.87749 7.52287 2.90229 7.62905 2.90266 7.73693C2.90266 8.13777 2.57781 8.46274 2.17679 8.46274Z" fill="#00409E"/>
<path d="M4.1123 7.01074H8.22511V7.49465H4.1123V7.01074Z" fill="#00409E"/>
<path d="M4.1123 7.97852H5.80581V8.46236H4.1123V7.97852Z" fill="#00409E"/>
<path d="M6.29102 7.97852H8.22641V8.46236H6.29102V7.97852Z" fill="#00409E"/>
<path d="M8.70898 7.01074H9.67668V7.49465H8.70898V7.01074Z" fill="#00409E"/>
<path d="M3.45745 9.01758L2.84293 9.63211C2.32348 9.28822 1.62787 9.39373 1.23365 9.87619C0.83949 10.3586 0.874843 11.0613 1.31533 11.5018C1.75577 11.9424 2.45853 11.9776 2.94098 11.5835C3.42337 11.1892 3.52895 10.4937 3.185 9.97418L3.79947 9.35971L3.45745 9.01758ZM2.17679 11.3661C1.77602 11.3661 1.45105 11.0411 1.45105 10.6403C1.45105 10.2394 1.77602 9.91445 2.17679 9.91445C2.28473 9.91481 2.39091 9.93955 2.48775 9.98698L2.00585 10.4691L2.34786 10.8111L2.83013 10.3294C2.87749 10.4262 2.90229 10.5324 2.90266 10.6403C2.90266 11.0411 2.57781 11.3661 2.17679 11.3661Z" fill="#00409E"/>
<path d="M4.1123 9.91406H7.25741V10.398H4.1123V9.91406Z" fill="#00409E"/>
<path d="M4.1123 10.8818H5.80581V11.3657H4.1123V10.8818Z" fill="#00409E"/>
<path d="M6.29102 10.8818H7.25871V11.3657H6.29102V10.8818Z" fill="#00409E"/>
<path d="M11.3703 14.7533C13.3746 14.7533 14.9993 13.1284 14.9993 11.1242C14.9993 9.11985 13.3746 7.49512 11.3703 7.49512C9.36595 7.49512 7.74121 9.11985 7.74121 11.1242C7.74358 13.1275 9.36692 14.7509 11.3703 14.7533ZM11.3703 7.97903C13.1072 7.97903 14.5155 9.38716 14.5155 11.1242C14.5155 12.8612 13.1072 14.2693 11.3703 14.2693C9.63319 14.2693 8.225 12.8612 8.225 11.1242C8.22706 9.38801 9.63398 7.98097 11.3703 7.97903Z" fill="#00409E"/>
</svg>
