<svg width="174" height="200" viewBox="0 0 174 200" fill="none" xmlns="http://www.w3.org/2000/svg">
<path d="M53.6624 53.4381C52.3597 52.4783 50.5245 52.7572 49.5655 54.0607L43.7667 61.9392L41.7839 59.2158C40.8315 57.908 38.9987 57.6189 37.6901 58.5716C36.3819 59.5244 36.0933 61.3576 37.046 62.6658L40.4667 67.3634C41.2284 68.4091 42.4554 69.0353 43.7487 69.0388H43.7589C45.0487 69.0388 46.2741 68.4197 47.039 67.3806L54.2858 57.5353C55.2444 56.2318 54.9655 54.3974 53.6624 53.4381Z" fill="#00409E"/>
<path d="M53.6635 101.495C52.3608 100.535 50.5256 100.814 49.5666 102.117L43.7678 109.995L41.785 107.272C40.8323 105.964 39.0002 105.675 37.6909 106.628C36.3827 107.581 36.094 109.413 37.0467 110.722L40.4674 115.42C41.2288 116.465 42.4557 117.092 43.7491 117.095C43.7526 117.096 43.7561 117.096 43.7592 117.096C45.0491 117.096 46.2749 116.476 47.0397 115.437L54.2866 105.592C55.2455 104.288 54.9666 102.454 53.6635 101.495Z" fill="#00409E"/>
<path d="M53.6635 147.504C52.3608 146.545 50.5256 146.824 49.5666 148.127L43.7678 156.005L41.785 153.282C40.8323 151.974 39.0002 151.685 37.6909 152.638C36.3827 153.59 36.094 155.423 37.0467 156.731L40.4674 161.43C41.2288 162.475 42.4557 163.102 43.7491 163.105C43.7526 163.105 43.7561 163.105 43.7592 163.105C45.0491 163.105 46.2749 162.486 47.0397 161.447L54.2866 151.602C55.2455 150.299 54.9666 148.464 53.6635 147.504Z" fill="#00409E"/>
<path d="M76.0711 57.7613H112.288C113.907 57.7613 115.219 56.4496 115.219 54.8309C115.219 53.2121 113.907 51.9004 112.288 51.9004H76.0711C74.4527 51.9004 73.1406 53.2121 73.1406 54.8309C73.1406 56.4496 74.4527 57.7613 76.0711 57.7613Z" fill="#00409E"/>
<path d="M76.0711 70.0052H94.1797C95.798 70.0052 97.1102 68.6935 97.1102 67.0748C97.1102 65.456 95.798 64.1443 94.1797 64.1443H76.0711C74.4527 64.1443 73.1406 65.456 73.1406 67.0748C73.1406 68.6935 74.4527 70.0052 76.0711 70.0052Z" fill="#00409E"/>
<path d="M76.0711 104.795H100.371C101.989 104.795 103.302 103.483 103.302 101.864C103.302 100.246 101.989 98.9338 100.371 98.9338H76.0711C74.4527 98.9338 73.1406 100.246 73.1406 101.864C73.1406 103.483 74.4527 104.795 76.0711 104.795Z" fill="#00409E"/>
<path d="M94.1797 117.037C95.798 117.037 97.1102 115.725 97.1102 114.106C97.1102 112.488 95.798 111.176 94.1797 111.176H76.0711C74.4527 111.176 73.1406 112.488 73.1406 114.106C73.1406 115.725 74.4527 117.037 76.0711 117.037H94.1797Z" fill="#00409E"/>
<path d="M56.9564 42.2068H34.3806C30.2678 42.2068 26.9213 45.5533 26.9213 49.6662V72.2419C26.9213 76.3548 30.2678 79.7013 34.3806 79.7013H56.9564C61.0693 79.7013 64.4158 76.3548 64.4158 72.2419V49.6662C64.4158 45.5533 61.0697 42.2068 56.9564 42.2068ZM58.5553 72.2419C58.5553 73.1232 57.8381 73.8404 56.9568 73.8404H34.381C33.4998 73.8404 32.7826 73.1236 32.7826 72.2419V49.6662C32.7826 48.7849 33.4998 48.0677 34.381 48.0677H56.9568C57.8381 48.0677 58.5553 48.7845 58.5553 49.6662V72.2419Z" fill="#00409E"/>
<path d="M56.9564 89.2385H34.3806C30.2678 89.2385 26.9213 92.585 26.9213 96.6979V119.274C26.9213 123.387 30.2678 126.733 34.3806 126.733H56.9564C61.0693 126.733 64.4158 123.387 64.4158 119.274V96.6979C64.4158 92.5846 61.0697 89.2385 56.9564 89.2385ZM58.5553 119.274C58.5553 120.155 57.8381 120.872 56.9568 120.872H34.381C33.4998 120.872 32.7826 120.155 32.7826 119.274V96.6979C32.7826 95.8166 33.4998 95.0995 34.381 95.0995H56.9568C57.8381 95.0995 58.5553 95.8163 58.5553 96.6979V119.274Z" fill="#00409E"/>
<path d="M56.9564 136.273H34.3806C30.2678 136.273 26.9213 139.62 26.9213 143.733V166.308C26.9213 170.421 30.2678 173.768 34.3806 173.768H56.9564C61.0693 173.768 64.4158 170.421 64.4158 166.308V143.733C64.4158 139.62 61.0697 136.273 56.9564 136.273ZM58.5553 166.308C58.5553 167.19 57.8381 167.907 56.9568 167.907H34.381C33.4998 167.907 32.7826 167.19 32.7826 166.308V143.733C32.7826 142.851 33.4998 142.134 34.381 142.134H56.9568C57.8381 142.134 58.5553 142.851 58.5553 143.733V166.308Z" fill="#00409E"/>
<path d="M168.74 50.1242L164.089 47.1789C161.674 45.6492 158.808 45.1527 156.02 45.7789C153.231 46.4059 150.853 48.0812 149.325 50.4965L145.06 57.2355L139.138 66.593L132.441 77.1754V33.1879C132.441 30.1586 129.977 27.6941 126.947 27.6941H105.949V21.8336H134.061C136.399 21.8336 138.302 23.7359 138.302 26.0746V51.4527C138.302 53.0715 139.614 54.3832 141.232 54.3832C142.851 54.3832 144.163 53.0715 144.163 51.4527V26.0746C144.163 20.5047 139.631 15.9727 134.061 15.9727H105.343C104.143 13.0754 101.288 11.0309 97.9621 11.0309H90.3918V8.07969C90.3918 3.625 86.7672 0 82.3117 0H62.1406C57.6851 0 54.0605 3.625 54.0605 8.08008V11.0312H46.4902C43.1644 11.0312 40.3093 13.0758 39.1097 15.973H10.3914C4.82107 15.973 0.289429 20.5047 0.289429 26.075V189.898C0.289429 195.468 4.82107 200 10.3914 200H134.061C139.632 200 144.163 195.468 144.163 189.898V124.192C144.163 122.573 142.851 121.262 141.233 121.262C139.614 121.262 138.302 122.573 138.302 124.192V189.898C138.302 192.237 136.4 194.139 134.061 194.139H10.3914C8.05271 194.139 6.14997 192.237 6.14997 189.898V26.0746C6.14997 23.7359 8.05271 21.8336 10.3914 21.8336H38.5031V27.6945H17.5047C14.4754 27.6945 12.0109 30.159 12.0109 33.1883V182.785C12.0109 185.814 14.4754 188.279 17.5047 188.279H126.948C129.977 188.279 132.441 185.814 132.441 182.785V127.483L161.868 80.9844C161.868 80.9836 161.869 80.9824 161.869 80.9816L167.789 71.6273L172.057 64.884C175.21 59.9 173.722 53.2789 168.74 50.1242ZM157.305 51.4973C158.566 51.2129 159.862 51.4383 160.953 52.1301L165.604 55.0758C167.857 56.5023 168.53 59.4961 167.104 61.7496L164.404 66.016L151.579 57.8945L154.277 53.6309C154.968 52.5383 156.043 51.7805 157.305 51.4973ZM101.804 164.937C101.249 165.813 100.628 166.639 99.948 167.412C99.0281 166.178 97.9828 165.061 96.8332 164.077L151.437 77.8488L155.349 80.3258L101.804 164.937ZM81.7933 182.414C81.773 182.407 81.7476 182.393 81.7379 182.393C81.7359 182.393 81.7347 182.394 81.734 182.395C88.0816 156.033 84.9914 168.867 85.8738 165.202C89.6808 165.838 93.2203 167.979 95.5492 171.329C80.0328 183.832 82.0136 182.214 81.7933 182.414ZM148.445 62.8469L161.27 70.9684L158.482 75.373L145.657 67.2516L148.445 62.8469ZM44.3636 19.0836C44.3656 19.0477 44.3679 19.0117 44.3687 18.9754C44.3691 18.9629 44.3675 18.9508 44.3679 18.9383C44.4101 17.8031 45.3445 16.8914 46.4902 16.8914H54.8851C57.6621 16.8914 59.9215 14.632 59.9215 11.8551V8.07969C59.9215 6.85586 60.9172 5.86055 62.141 5.86055H82.3121C83.5359 5.86055 84.5316 6.85586 84.5316 8.07969V11.8551C84.5316 14.632 86.791 16.8914 89.5679 16.8914H97.9629C99.1086 16.8914 100.043 17.8027 100.085 18.9383C100.085 18.9508 100.084 18.9629 100.084 18.9754C100.085 19.0109 100.087 19.0469 100.089 19.0828V27.6941H44.3636V19.0836ZM17.8715 33.5551H126.58V86.4367L95.9101 134.902C95.0445 136.27 95.4515 138.08 96.8191 138.946C98.1808 139.807 99.9933 139.41 100.862 138.036L142.523 72.2039L146.486 74.7129L91.8812 160.941C90.5 160.323 89.0437 159.855 87.5351 159.552C87.9437 158.606 88.4242 157.691 88.9789 156.815L93.5343 149.617C94.4 148.249 93.9929 146.439 92.6254 145.573C91.2574 144.708 89.4472 145.115 88.582 146.483L84.0269 153.68C82.5218 156.057 81.425 158.648 80.766 161.382C80.766 161.383 80.7656 161.383 80.7656 161.384L76.0437 180.974C75.9269 181.458 75.8726 181.942 75.8738 182.418H17.8715V33.5551ZM126.58 182.418H91.13L101.187 174.313C103.377 172.549 105.25 170.45 106.755 168.072L126.58 136.745V182.418Z" fill="#00409E"/>
</svg>
