<svg width="16" height="16" viewBox="0 0 16 16" fill="none" xmlns="http://www.w3.org/2000/svg">
<path d="M7.99942 2.08691C4.35559 2.08691 1.39075 5.05179 1.39075 8.69561C1.39075 12.3394 4.35563 15.3043 7.99945 15.3043C11.6432 15.3043 14.6081 12.3394 14.6081 8.69561C14.6081 5.05179 11.6432 2.08691 7.99942 2.08691ZM7.99942 14.6086C4.73891 14.6086 2.08639 11.9561 2.08639 8.69561C2.08639 5.43511 4.73891 2.78255 7.99942 2.78255C11.2599 2.78255 13.9124 5.43507 13.9124 8.69558C13.9124 11.9561 11.26 14.6086 7.99942 14.6086Z" fill="#717784"/>
<path d="M5.6654 1.16745C5.1026 0.858583 4.4668 0.695801 3.82611 0.695801C1.71688 0.695801 0 2.412 0 4.52191C0 5.16469 0.162782 5.80053 0.471652 6.3612C0.534945 6.47667 0.653902 6.54136 0.776347 6.54136C0.83338 6.54136 0.89113 6.52744 0.943988 6.49822C1.11303 6.40571 1.17424 6.19421 1.08173 6.02588C0.828521 5.56744 0.695641 5.04779 0.695641 4.52187C0.695641 2.79596 2.10016 1.39144 3.82607 1.39144C4.35058 1.39144 4.87024 1.52501 5.33077 1.77753C5.49772 1.86935 5.71059 1.80883 5.8031 1.63979C5.89565 1.47146 5.83372 1.26 5.6654 1.16745Z" fill="#717784"/>
<path d="M12.1739 0.695801C11.5332 0.695801 10.8974 0.858583 10.3346 1.16745C10.1663 1.25996 10.1044 1.47146 10.1969 1.63979C10.2894 1.80883 10.5023 1.86795 10.6692 1.77753C11.1298 1.52501 11.6494 1.39144 12.1739 1.39144C13.8998 1.39144 15.3044 2.79596 15.3044 4.52187C15.3044 5.04779 15.1715 5.56744 14.919 6.02588C14.8264 6.19424 14.8876 6.40571 15.056 6.49822C15.1089 6.52744 15.1666 6.54136 15.2236 6.54136C15.3461 6.54136 15.4643 6.47667 15.5283 6.36188C15.8372 5.80049 16 5.16466 16 4.52187C16 2.412 14.2831 0.695801 12.1739 0.695801Z" fill="#717784"/>
<path d="M10.333 10.537L8.34765 8.55157V4.52166C8.34765 4.32967 8.19182 4.17383 7.99982 4.17383C7.80781 4.17383 7.65198 4.32967 7.65198 4.52166V8.69557C7.65198 8.78808 7.68886 8.87645 7.75355 8.94183L9.84052 11.0288C9.90871 11.0963 9.99773 11.1304 10.0868 11.1304C10.1758 11.1304 10.2649 11.0963 10.333 11.0288C10.4687 10.8931 10.4687 10.6726 10.333 10.537Z" fill="#717784"/>
</svg>
