<svg width="150" height="150" viewBox="0 0 150 150" fill="none" xmlns="http://www.w3.org/2000/svg">
<g clip-path="url(#clip0)">
<path d="M52.6783 117.6L30.3 129.807C28.9868 130.523 27.8066 131.403 26.7085 132.362C39.7557 143.363 56.5981 150 75 150C93.2661 150 110.001 143.462 123.011 132.612C121.811 131.598 120.509 130.687 119.066 129.968L95.1029 117.988C92.0066 116.44 90.051 113.276 90.051 109.814V100.412C90.7246 99.6455 91.4944 98.6606 92.3179 97.4974C95.584 92.8842 98.0547 87.8096 99.767 82.486C102.841 81.5379 105.105 78.6992 105.105 75.3257V65.2898C105.105 63.0823 104.123 61.1096 102.597 59.7285V45.2209C102.597 45.2209 105.577 22.6445 75.0028 22.6445C44.4283 22.6445 47.4085 45.2209 47.4085 45.2209V59.7285C45.8802 61.1096 44.901 63.0823 44.901 65.2898V75.3257C44.901 77.9691 46.2906 80.2955 48.3708 81.6398C50.8783 92.5559 57.4444 100.412 57.4444 100.412V109.582C57.4415 112.922 55.6132 115.998 52.6783 117.6Z" fill="#A1A4B1"/>
<path d="M76.2819 0.0111684C34.8678 -0.696379 0.718723 32.3036 0.0111758 73.7178C-0.390711 97.1999 10.0753 118.305 26.7395 132.339C27.8291 131.389 28.998 130.517 30.297 129.809L52.6753 117.603C55.6102 116.001 57.4385 112.924 57.4385 109.579V100.409C57.4385 100.409 50.8697 92.5527 48.3649 81.6367C46.2876 80.2923 44.8951 77.9687 44.8951 75.3225V65.2867C44.8951 63.0791 45.8772 61.1065 47.4027 59.7253V45.2178C47.4027 45.2178 44.4225 22.6414 74.997 22.6414C105.572 22.6414 102.591 45.2178 102.591 45.2178V59.7253C104.12 61.1065 105.099 63.0791 105.099 65.2867V75.3225C105.099 78.6961 102.835 81.5348 99.7612 82.4829C98.0489 87.8065 95.5782 92.881 92.3121 97.4942C91.4885 98.6574 90.7187 99.6423 90.0451 100.409V109.811C90.0451 113.272 92.0008 116.439 95.097 117.985L119.06 129.965C120.498 130.684 121.797 131.592 122.994 132.603C139.155 119.125 149.595 98.9744 149.983 76.2819C150.696 34.8678 117.699 0.718716 76.2819 0.0111684Z" fill="#E6E7EB"/>
</g>
<defs>
<clipPath id="clip0">
<rect width="150" height="150" fill="white"/>
</clipPath>
</defs>
</svg>
