<svg width="100" height="100" viewBox="0 0 100 100" fill="none" xmlns="http://www.w3.org/2000/svg">
<path d="M91.2994 36.2843C90.6494 35.3384 89.3578 35.0968 88.4035 35.7427L54.2328 59.1218C51.6578 60.8802 48.3328 60.8802 45.7619 59.1218L11.591 35.7427C10.6369 35.0927 9.34103 35.3343 8.69513 36.2843C8.04923 37.2343 8.29103 38.5302 9.24103 39.1802L43.4119 62.5593C45.4119 63.9302 47.7078 64.6134 49.9994 64.6134C52.291 64.6134 54.5869 63.93 56.5869 62.5593L90.7578 39.1802C91.7078 38.5302 91.9494 37.2343 91.2994 36.2843Z" fill="#00409E"/>
<path d="M95.2459 29.0845L56.8209 4.18862C52.7834 1.42612 47.1709 1.45522 43.2209 4.15952L4.7541 29.0804C1.775 31.0095 0 34.2761 0 37.8261V87.4595C0 93.2011 4.675 97.8761 10.4166 97.8761H89.5832C95.3248 97.8761 99.9998 93.2052 99.9998 87.4595V37.8261C100 34.2761 98.225 31.0095 95.2459 29.0845ZM95.8334 87.4595C95.8334 90.9054 93.0293 93.7095 89.5834 93.7095H10.4166C6.9707 93.7095 4.1666 90.9054 4.1666 87.4595V37.8261C4.1666 35.697 5.2332 33.7345 7.0207 32.5802L45.5291 7.62612C46.8541 6.72202 48.4 6.24272 50 6.24272C51.6 6.24272 53.1459 6.72183 54.5125 7.65522L92.9791 32.5802C94.7666 33.7386 95.8332 35.6968 95.8332 37.8261V87.4595H95.8334Z" fill="#00409E"/>
<path d="M37.0169 65.2889C36.2794 64.4055 34.9669 64.2848 34.0794 65.0223L9.07938 85.8557C8.19599 86.5932 8.07528 87.9098 8.81278 88.7932C9.22528 89.2891 9.81688 89.5432 10.4169 89.5432C10.8878 89.5432 11.3628 89.3848 11.7503 89.0598L36.7503 68.2264C37.6337 67.4889 37.7544 66.1723 37.0169 65.2889Z" fill="#00409E"/>
<path d="M90.9206 85.8556L65.9206 65.0222C65.029 64.2847 63.7165 64.4056 62.9831 65.2888C62.2456 66.1763 62.3665 67.4888 63.2497 68.2263L88.2497 89.0597C88.6413 89.3847 89.1122 89.5431 89.5831 89.5431C90.179 89.5431 90.7706 89.289 91.1872 88.7931C91.9247 87.9056 91.8038 86.5931 90.9206 85.8556Z" fill="#00409E"/>
</svg>
