<svg width="25" height="25" viewBox="0 0 25 25" fill="none" xmlns="http://www.w3.org/2000/svg">
<g clip-path="url(#clip0)">
<path d="M24.9074 12.2049C24.7105 11.9185 19.9792 5.20898 12.4999 5.20898C6.08211 5.20898 0.363275 11.8799 0.122646 12.1643C-0.040882 12.3581 -0.040882 12.6424 0.122646 12.8372C0.363275 13.1216 6.08211 19.7926 12.4999 19.7926C18.9178 19.7926 24.6366 13.1216 24.8772 12.8372C25.0283 12.6581 25.0418 12.3987 24.9074 12.2049ZM12.4999 18.7509C7.35508 18.7509 2.46331 13.8446 1.22061 12.5008C2.46126 11.156 7.34781 6.2507 12.4999 6.2507C18.5198 6.2507 22.7688 11.1498 23.8064 12.4727C22.6084 13.7737 17.6885 18.7509 12.4999 18.7509Z" fill="#717784"/>
<path d="M12.4997 8.33398C10.2018 8.33398 8.33301 10.2028 8.33301 12.5007C8.33301 14.7986 10.2018 16.6674 12.4997 16.6674C14.7977 16.6674 16.6665 14.7986 16.6665 12.5007C16.6665 10.2028 14.7977 8.33398 12.4997 8.33398ZM12.4997 15.6258C10.7768 15.6258 9.37468 14.2237 9.37468 12.5008C9.37468 10.7778 10.7768 9.3757 12.4997 9.3757C14.2227 9.3757 15.6248 10.7778 15.6248 12.5008C15.6248 14.2237 14.2227 15.6258 12.4997 15.6258Z" fill="#717784"/>
</g>
<defs>
<clipPath id="clip0">
<rect width="25" height="25" fill="white"/>
</clipPath>
</defs>
</svg>
