<svg width="100" height="100" viewBox="0 0 100 100" fill="none" xmlns="http://www.w3.org/2000/svg">
<path d="M50 64.8438C48.922 64.8438 48.0469 65.7188 48.0469 66.7969C48.0469 67.8749 48.922 68.75 50 68.75C51.078 68.75 51.9531 67.8749 51.9531 66.7969C51.9531 65.7188 51.078 64.8438 50 64.8438Z" fill="#00409E"/>
<path d="M24.6094 74.4141V88.2812H22.6562C19.4252 88.2812 16.7969 90.9096 16.7969 94.1406V96.0938H14.8438C13.765 96.0938 12.8906 96.9681 12.8906 98.0469C12.8906 99.1257 13.765 100 14.8438 100H85.1562C86.235 100 87.1094 99.1257 87.1094 98.0469C87.1094 96.9681 86.235 96.0938 85.1562 96.0938H83.2031V94.1406C83.2031 90.9096 80.5748 88.2812 77.3438 88.2812H75.3906V74.4141C75.3906 64.5676 70.5421 55.4848 62.5458 49.9992C70.6665 44.4168 75.3906 35.2448 75.3906 25.5859V11.7188H77.3438C80.5748 11.7188 83.2031 9.09042 83.2031 5.85938V3.90625H85.1562C86.235 3.90625 87.1094 3.03192 87.1094 1.95312C87.1094 0.874328 86.235 0 85.1562 0H14.8438C13.765 0 12.8906 0.874328 12.8906 1.95312C12.8906 3.03192 13.765 3.90625 14.8438 3.90625H16.7969V5.85938C16.7969 9.09042 19.4252 11.7188 22.6562 11.7188H24.6094V25.5859C24.6094 35.4324 29.4579 44.5152 37.4542 50.0008C29.2862 55.6152 24.6094 64.8125 24.6094 74.4141ZM77.3438 92.1875C78.421 92.1875 79.2969 93.0634 79.2969 94.1406V96.0938H20.7031V94.1406C20.7031 93.0634 21.579 92.1875 22.6562 92.1875H77.3438ZM36.4502 88.2812C37.0369 83.9775 39.7766 82.5218 45.0233 79.7379L50 77.0866L54.9767 79.7379C60.2234 82.5218 62.9623 83.9775 63.5498 88.2812H36.4502ZM22.6562 7.8125C21.579 7.8125 20.7031 6.93665 20.7031 5.85938V3.90625H79.2969V5.85938C79.2969 6.93665 78.421 7.8125 77.3438 7.8125H22.6562ZM42.1303 51.7235C42.7666 51.384 43.1641 50.721 43.1641 50C43.1641 49.279 42.7666 48.616 42.1303 48.2765C33.7326 43.7973 28.5156 35.1028 28.5156 25.5859V11.7188H71.4844V25.5859C71.4844 35.0761 66.2552 43.8049 57.8697 48.2765C57.2334 48.616 56.8359 49.279 56.8359 50C56.8359 50.721 57.2334 51.384 57.8697 51.7235C66.2674 56.2027 71.4844 64.8972 71.4844 74.4141V88.2812H67.4767C66.7679 81.5781 62.3199 79.2122 56.8077 76.2871L50.9186 73.1499C50.3441 72.8432 49.6559 72.8432 49.0814 73.1499L43.1923 76.2871C37.6801 79.2122 33.2314 81.5781 32.5233 88.2812H28.5156V74.4141C28.5156 64.9239 33.7448 56.1958 42.1303 51.7235Z" fill="#00409E"/>
</svg>
