<svg width="12" height="12" viewBox="0 0 12 12" fill="none" xmlns="http://www.w3.org/2000/svg">
<path d="M2.99968 4.33333V11C2.99968 11.0884 2.96456 11.1732 2.90204 11.2357C2.83953 11.2982 2.75475 11.3333 2.66634 11.3333H0.999675C0.91127 11.3333 0.826485 11.2982 0.763973 11.2357C0.701461 11.1732 0.666342 11.0884 0.666342 11V4.33333C0.666342 4.24493 0.701461 4.16014 0.763973 4.09763C0.826485 4.03512 0.91127 4 0.999675 4H2.66634C2.75475 4 2.83953 4.03512 2.90204 4.09763C2.96456 4.16014 2.99968 4.24493 2.99968 4.33333ZM11.9997 6.94C12.0108 6.2394 11.7822 5.55602 11.3518 5.00313C10.9214 4.45024 10.3149 4.06102 9.63301 3.9C9.16901 3.80009 8.68783 3.81271 8.2297 3.93681C7.77157 4.06091 7.34981 4.29288 6.99968 4.61333V4.33333C6.99968 4.24493 6.96456 4.16014 6.90204 4.09763C6.83953 4.03512 6.75475 4 6.66634 4H4.99968C4.91127 4 4.82648 4.03512 4.76397 4.09763C4.70146 4.16014 4.66634 4.24493 4.66634 4.33333V11C4.66634 11.0884 4.70146 11.1732 4.76397 11.2357C4.82648 11.2982 4.91127 11.3333 4.99968 11.3333H6.66634C6.75475 11.3333 6.83953 11.2982 6.90204 11.2357C6.96456 11.1732 6.99968 11.0884 6.99968 11V7.24C6.9917 6.91565 7.09826 6.59885 7.30065 6.34526C7.50303 6.09167 7.7883 5.9175 8.10634 5.85333C8.29942 5.82 8.49747 5.82964 8.6864 5.88155C8.87533 5.93346 9.0505 6.02637 9.19944 6.15367C9.34839 6.28097 9.46744 6.43953 9.54814 6.61808C9.62884 6.79662 9.6692 6.99075 9.66634 7.18667V11C9.66634 11.0884 9.70146 11.1732 9.76397 11.2357C9.82648 11.2982 9.91127 11.3333 9.99968 11.3333H11.6663C11.7547 11.3333 11.8395 11.2982 11.902 11.2357C11.9646 11.1732 11.9997 11.0884 11.9997 11V6.94ZM1.66634 0C1.40263 0 1.14485 0.0781986 0.925582 0.224707C0.706316 0.371216 0.535419 0.579454 0.434502 0.823089C0.333586 1.06672 0.307181 1.33481 0.358628 1.59345C0.410075 1.8521 0.537063 2.08967 0.723533 2.27614C0.910003 2.46261 1.14758 2.5896 1.40622 2.64105C1.66486 2.69249 1.93295 2.66609 2.17659 2.56517C2.42022 2.46426 2.62846 2.29336 2.77497 2.07409C2.92148 1.85483 2.99968 1.59704 2.99968 1.33333C2.99968 0.979711 2.8592 0.640573 2.60915 0.390524C2.3591 0.140476 2.01996 0 1.66634 0Z" fill="#00409E"/>
</svg>
