<svg width="144" height="142" viewBox="0 0 144 142" fill="none" xmlns="http://www.w3.org/2000/svg">
<path d="M140.551 117.667H132.551V18.098C132.551 8.30265 124.582 0.333984 114.787 0.333984H27.8115C19.3975 0.333984 12.5508 7.18065 12.5508 15.5946V24.334C12.5508 25.8067 13.7448 27.0006 15.2175 27.0006H36.5508V121.145C36.5508 133.037 44.4008 141.667 55.2175 141.667H127.81C136.306 141.667 143.217 134.756 143.217 126.26V120.334C143.217 118.861 142.023 117.667 140.551 117.667ZM17.8841 21.6673V15.5946C17.8841 10.204 22.2101 5.82465 27.7461 5.69198C33.0961 5.94398 36.5508 10.0993 36.5508 16.334V21.6673H17.8841ZM65.8841 124.334C65.8841 130.709 60.9035 135.972 54.5441 136.316C54.5361 136.316 54.5275 136.317 54.5181 136.317C47.0441 135.958 41.8841 129.82 41.8841 121.145V16.334C41.8841 12.0873 40.5895 8.43265 38.4135 5.66732H114.787C121.641 5.66732 127.217 11.244 127.217 18.098V117.667H68.5508C67.0781 117.667 65.8841 118.861 65.8841 120.334V124.334ZM137.884 126.26C137.884 131.815 133.365 136.334 127.81 136.334H66.3948C69.3868 133.213 71.2175 128.977 71.2175 124.334V123.001H137.884V126.26Z" fill="#00409E"/>
<path d="M12.8743 93.3455C11.8329 92.3041 10.1449 92.3041 9.10358 93.3455L7.21825 95.2308L5.33292 93.3455C4.29158 92.3041 2.60358 92.3041 1.56225 93.3455C0.520917 94.3868 0.520917 96.0748 1.56225 97.1161L3.44758 99.0015L1.56225 100.887C0.520917 101.928 0.520917 103.616 1.56225 104.657C2.08292 105.178 2.76558 105.439 3.44758 105.439C4.12958 105.439 4.81225 105.178 5.33292 104.657L7.21825 102.772L9.10358 104.657C9.62425 105.178 10.3069 105.439 10.9889 105.439C11.6709 105.439 12.3536 105.178 12.8743 104.657C13.9156 103.616 13.9156 101.928 12.8743 100.887L10.9889 99.0015L12.8743 97.1161C13.9163 96.0741 13.9163 94.3868 12.8743 93.3455Z" fill="#00409E"/>
<path d="M25.8854 93.6673C27.3582 93.6673 28.5521 92.4734 28.5521 91.0007C28.5521 89.5279 27.3582 88.334 25.8854 88.334C24.4127 88.334 23.2188 89.5279 23.2188 91.0007C23.2188 92.4734 24.4127 93.6673 25.8854 93.6673Z" fill="#00409E"/>
<path d="M17.8854 64.3333C19.3582 64.3333 20.5521 63.1394 20.5521 61.6667C20.5521 60.1939 19.3582 59 17.8854 59C16.4127 59 15.2188 60.1939 15.2188 61.6667C15.2188 63.1394 16.4127 64.3333 17.8854 64.3333Z" fill="#00409E"/>
</svg>
