<svg width="32" height="32" viewBox="0 0 32 32" fill="none" xmlns="http://www.w3.org/2000/svg">
<path d="M16.0001 30.471C16.5601 30.4581 17.0974 30.2476 17.5171 29.8767C17.9368 29.5058 18.2118 28.9984 18.2935 28.4443H13.6179C13.7019 29.0135 13.9898 29.5328 14.428 29.9056C14.8662 30.2784 15.4249 30.4793 16.0001 30.471Z" fill="#333333"/>
<path d="M28.8981 24.7381C28.0409 23.974 27.2905 23.098 26.667 22.1337C25.9863 20.8026 25.5783 19.349 25.467 17.8581V13.467C25.4634 12.9336 25.4158 12.4015 25.3248 11.8759C24.6251 11.736 23.9527 11.4839 23.3336 11.1292C23.5696 11.8891 23.6895 12.6802 23.6892 13.4759V17.867C23.7982 19.6857 24.2984 21.4594 25.1559 23.067C25.7696 24.0395 26.4977 24.9348 27.3248 25.7337H4.56031C5.38734 24.9348 6.11551 24.0395 6.7292 23.067C7.58664 21.4594 8.08692 19.6857 8.19587 17.867V13.467C8.19119 12.4383 8.38948 11.4187 8.77937 10.4668C9.16927 9.51478 9.74312 8.64906 10.4681 7.91916C11.193 7.18926 12.0548 6.60953 13.0041 6.21316C13.9534 5.81679 14.9716 5.61156 16.0003 5.60924C17.5059 5.61044 18.9777 6.05568 20.2314 6.88924C20.0932 6.38167 20.0156 5.85951 20.0003 5.33368V4.77368C19.0722 4.31711 18.0751 4.01678 17.0492 3.88479V2.76479C17.0492 2.45007 16.9242 2.14823 16.7016 1.92569C16.4791 1.70315 16.1773 1.57812 15.8625 1.57812C15.5478 1.57812 15.246 1.70315 15.0234 1.92569C14.8009 2.14823 14.6759 2.45007 14.6759 2.76479V3.92924C12.3787 4.25328 10.2764 5.39745 8.75696 7.15051C7.23753 8.90357 6.40363 11.1471 6.4092 13.467V17.8581C6.29787 19.349 5.88989 20.8026 5.2092 22.1337C4.59665 23.0958 3.85827 23.9717 3.01365 24.7381C2.91883 24.8214 2.84284 24.924 2.79073 25.0389C2.73862 25.1539 2.71159 25.2786 2.71143 25.4048V26.6137C2.71143 26.8494 2.80508 27.0755 2.97178 27.2422C3.13847 27.4089 3.36457 27.5026 3.60031 27.5026H28.3114C28.5472 27.5026 28.7733 27.4089 28.94 27.2422C29.1067 27.0755 29.2003 26.8494 29.2003 26.6137V25.4048C29.2002 25.2786 29.1731 25.1539 29.121 25.0389C29.0689 24.924 28.9929 24.8214 28.8981 24.7381Z" fill="#333333"/>
<path d="M26.6666 9.77756C29.1212 9.77756 31.1111 7.78771 31.1111 5.33312C31.1111 2.87852 29.1212 0.888672 26.6666 0.888672C24.212 0.888672 22.2222 2.87852 22.2222 5.33312C22.2222 7.78771 24.212 9.77756 26.6666 9.77756Z" fill="#00409E"/>
</svg>
