<svg width="70" height="70" viewBox="0 0 70 70" fill="none" xmlns="http://www.w3.org/2000/svg">
<g clip-path="url(#clip0)">
<path d="M34.9998 31.5C34.8294 31.5 34.6603 31.4627 34.5028 31.3892L14.6694 22.0559C14.2611 21.8634 13.9998 21.4515 13.9998 21C13.9998 20.5485 14.2611 20.1367 14.6694 19.9442L34.5028 10.6109C34.8178 10.4627 35.1818 10.4627 35.4968 10.6109L55.3301 19.9442C55.7384 20.1367 55.9998 20.5485 55.9998 21C55.9998 21.4515 55.7384 21.8634 55.3301 22.0559L35.4968 31.3892C35.3393 31.4627 35.1701 31.5 34.9998 31.5ZM17.9069 21L34.9998 29.0442L52.0926 21L34.9998 12.9559L17.9069 21Z" fill="#00409E"/>
<path d="M35.0006 40.8333C34.8221 40.8333 34.6425 40.7924 34.4791 40.7108L20.4792 33.7108C20.0837 33.5124 19.834 33.1088 19.834 32.6666V23.7451C19.834 23.3461 20.0382 22.9739 20.3753 22.7604C20.7125 22.5458 21.136 22.5213 21.4965 22.6893L35.0006 29.0441L48.5036 22.6893C48.8653 22.5201 49.2888 22.5458 49.6248 22.7604C49.9631 22.9739 50.1673 23.3461 50.1673 23.7451V32.6666C50.1673 33.1088 49.9176 33.5124 49.5221 33.7108L35.5221 40.7108C35.3588 40.7924 35.1791 40.8333 35.0006 40.8333ZM22.1673 31.9456L35.0006 38.3623L47.834 31.9456V25.5838L35.4976 31.3891C35.1826 31.5373 34.8186 31.5373 34.5036 31.3891L22.1673 25.5838V31.9456Z" fill="#00409E"/>
<path d="M54.8335 22.1666H35.0002C34.3562 22.1666 33.8335 21.6439 33.8335 20.9999C33.8335 20.3559 34.3562 19.8333 35.0002 19.8333H54.8335C55.4775 19.8333 56.0002 20.3559 56.0002 20.9999C56.0002 21.6439 55.4775 22.1666 54.8335 22.1666Z" fill="#00409E"/>
<path d="M54.8329 32.6666C54.1889 32.6666 53.6663 32.1439 53.6663 31.4999V20.9999C53.6663 20.3559 54.1889 19.8333 54.8329 19.8333C55.4769 19.8333 55.9996 20.3559 55.9996 20.9999V31.4999C55.9996 32.1439 55.4769 32.6666 54.8329 32.6666Z" fill="#00409E"/>
<path d="M35.0002 24.5C34.3562 24.5 33.8335 23.9773 33.8335 23.3333V18.6667C33.8335 18.0227 34.3562 17.5 35.0002 17.5C35.6442 17.5 36.1668 18.0227 36.1668 18.6667V23.3333C36.1668 23.9773 35.6442 24.5 35.0002 24.5Z" fill="#00409E"/>
<path d="M52.4988 36.1668C52.2772 36.1668 52.052 36.1038 51.8525 35.9708C51.317 35.6138 51.1723 34.8893 51.5293 34.3526L53.8627 30.8526C54.2197 30.316 54.943 30.1701 55.4808 30.5295C56.0163 30.8865 56.161 31.611 55.804 32.1476L53.4707 35.6476C53.2455 35.9848 52.8757 36.1668 52.4988 36.1668Z" fill="#00409E"/>
<path d="M57.167 36.1668C56.7902 36.1668 56.4204 35.9848 56.1952 35.6476L53.8619 32.1476C53.5049 31.6121 53.6495 30.8865 54.185 30.5295C54.7205 30.1701 55.445 30.316 55.8032 30.8526L58.1365 34.3526C58.4935 34.8881 58.3489 35.6138 57.8134 35.9708C57.6139 36.1038 57.3887 36.1668 57.167 36.1668Z" fill="#00409E"/>
<path d="M35.0002 34.9998C34.3562 34.9998 33.8335 34.4772 33.8335 33.8332V30.3332C33.8335 29.6892 34.3562 29.1665 35.0002 29.1665C35.6442 29.1665 36.1668 29.6892 36.1668 30.3332V33.8332C36.1668 34.4772 35.6442 34.9998 35.0002 34.9998Z" fill="#00409E"/>
<path d="M68.8333 45.5001H1.16667C0.522667 45.5001 0 44.9774 0 44.3334V5.83458C0 3.26091 2.09417 1.16675 4.66783 1.16675H65.3322C67.9058 1.16675 70 3.26091 70 5.83458V44.3334C70 44.9774 69.4773 45.5001 68.8333 45.5001ZM2.33333 43.1667H67.6667V5.83458C67.6667 4.54658 66.6202 3.50008 65.3322 3.50008H4.66783C3.37983 3.50008 2.33333 4.54658 2.33333 5.83458V43.1667Z" fill="#00409E"/>
<path d="M65.3322 54.8334H4.66783C2.09417 54.8334 0 52.7392 0 50.1656V44.3334C0 43.6894 0.522667 43.1667 1.16667 43.1667H68.8333C69.4773 43.1667 70 43.6894 70 44.3334V50.1656C70 52.7392 67.9058 54.8334 65.3322 54.8334ZM2.33333 45.5001V50.1656C2.33333 51.4536 3.37983 52.5001 4.66783 52.5001H65.3322C66.6202 52.5001 67.6667 51.4536 67.6667 50.1656V45.5001H2.33333Z" fill="#00409E"/>
<path d="M38.4999 50.1666H31.4999C30.8559 50.1666 30.3333 49.6439 30.3333 48.9999C30.3333 48.3559 30.8559 47.8333 31.4999 47.8333H38.4999C39.1439 47.8333 39.6666 48.3559 39.6666 48.9999C39.6666 49.6439 39.1439 50.1666 38.4999 50.1666Z" fill="#00409E"/>
<path d="M64.1667 45.5002H5.83341C5.18941 45.5002 4.66675 44.9775 4.66675 44.3335V7.00016C4.66675 6.35616 5.18941 5.8335 5.83341 5.8335H64.1667C64.8107 5.8335 65.3334 6.35616 65.3334 7.00016V44.3335C65.3334 44.9775 64.8107 45.5002 64.1667 45.5002ZM7.00008 43.1668H63.0001V8.16683H7.00008V43.1668Z" fill="#00409E"/>
<path d="M50.1668 68.8332H19.8335C17.9038 68.8332 16.3335 67.2629 16.3335 65.3333C16.3335 63.4036 17.9038 61.8333 19.8335 61.8333H50.1668C52.0965 61.8333 53.6668 63.4036 53.6668 65.3333C53.6668 67.2629 52.0965 68.8332 50.1668 68.8332ZM19.8335 64.1666C19.1907 64.1666 18.6668 64.6904 18.6668 65.3333C18.6668 65.9761 19.1907 66.4999 19.8335 66.4999H50.1668C50.8097 66.4999 51.3335 65.9761 51.3335 65.3333C51.3335 64.6904 50.8097 64.1666 50.1668 64.1666H19.8335Z" fill="#00409E"/>
<path d="M47.8336 64.1667H22.1669C21.5229 64.1667 21.0002 63.644 21.0002 63C21.0002 62.356 21.5229 61.8333 22.1669 61.8333C26.0379 61.8333 28.0002 59.0858 28.0002 53.6667C28.0002 53.0227 28.5229 52.5 29.1669 52.5H40.8336C41.4776 52.5 42.0002 53.0227 42.0002 53.6667C42.0002 59.0858 43.9626 61.8333 47.8336 61.8333C48.4776 61.8333 49.0002 62.356 49.0002 63C49.0002 63.644 48.4776 64.1667 47.8336 64.1667ZM27.8497 61.8333H42.1519C40.7146 60.242 39.8687 57.8725 39.6996 54.8333H30.3021C30.1317 57.8725 29.2871 60.242 27.8497 61.8333Z" fill="#00409E"/>
</g>
<defs>
<clipPath id="clip0">
<rect width="70" height="70" fill="white"/>
</clipPath>
</defs>
</svg>
