<svg width="20" height="21" viewBox="0 0 20 21" fill="none" xmlns="http://www.w3.org/2000/svg">
<g clip-path="url(#clip0)">
<path d="M9.99998 0.5C4.4861 0.5 0 4.9861 0 10.5C0 16.0139 4.4861 20.5 9.99998 20.5C15.5139 20.5 20 16.0139 20 10.5C20 4.9861 15.5139 0.5 9.99998 0.5ZM9.99998 19.6304C4.9652 19.6304 0.869551 15.5348 0.869551 10.5C0.869551 5.4652 4.9652 1.36955 9.99998 1.36955C15.0348 1.36955 19.1304 5.4652 19.1304 10.5C19.1304 15.5348 15.0348 19.6304 9.99998 19.6304Z" fill="#717784"/>
<path d="M9.99984 10.0645C6.88331 10.0645 4.34766 12.6001 4.34766 15.7166C4.34766 15.9566 4.54245 16.1514 4.78245 16.1514C5.02245 16.1514 5.21725 15.9566 5.21725 15.7166C5.21725 13.0792 7.36245 10.934 9.99984 10.934C12.6372 10.934 14.7824 13.0792 14.7824 15.7166C14.7824 15.9566 14.9772 16.1514 15.2172 16.1514C15.4572 16.1514 15.652 15.9566 15.652 15.7166C15.652 12.6001 13.1164 10.0645 9.99984 10.0645Z" fill="#717784"/>
<path d="M10 3.10938C8.32178 3.10938 6.95654 4.47458 6.95654 6.15286C6.95654 7.83115 8.32174 9.19635 10 9.19635C11.6783 9.19635 13.0435 7.83111 13.0435 6.15286C13.0435 4.47462 11.6783 3.10938 10 3.10938ZM10 8.32676C8.80178 8.32676 7.82613 7.35111 7.82613 6.15286C7.82613 4.95462 8.80178 3.97897 10 3.97897C11.1983 3.97897 12.1739 4.95462 12.1739 6.15286C12.1739 7.35111 11.1983 8.32676 10 8.32676Z" fill="#717784"/>
</g>
<defs>
<clipPath id="clip0">
<rect width="20" height="20" fill="white" transform="translate(0 0.5)"/>
</clipPath>
</defs>
</svg>
