<svg width="16" height="16" viewBox="0 0 16 16" fill="none" xmlns="http://www.w3.org/2000/svg">
<g clip-path="url(#clip0)">
<path d="M8 12C5.794 12 4 10.206 4 8C4 5.794 5.794 4 8 4C10.206 4 12 5.794 12 8C12 10.206 10.206 12 8 12ZM8 4.66667C6.162 4.66667 4.66667 6.162 4.66667 8C4.66667 9.838 6.162 11.3333 8 11.3333C9.838 11.3333 11.3333 9.838 11.3333 8C11.3333 6.162 9.838 4.66667 8 4.66667Z" fill="#717784"/>
<path d="M9.33268 9.66666C9.26335 9.66666 9.19268 9.64466 9.13268 9.59999L7.79935 8.59999C7.71535 8.53733 7.66602 8.43799 7.66602 8.33333V6.33333C7.66602 6.14933 7.81535 6 7.99935 6C8.18335 6 8.33268 6.14933 8.33268 6.33333V8.16666L9.53268 9.06666C9.68002 9.17733 9.71002 9.38599 9.60002 9.53333C9.53402 9.62066 9.43335 9.66666 9.33268 9.66666Z" fill="#717784"/>
<path d="M0.513333 10C0.360667 10 0.222667 9.89467 0.188 9.73933C0.0633333 9.18533 0 8.59933 0 8C0 3.58867 3.58867 0 8 0C10.5027 0 12.8133 1.14067 14.338 3.13067C14.45 3.27667 14.4227 3.486 14.276 3.598C14.1313 3.70933 13.9207 3.68267 13.8093 3.536C12.4107 1.71267 10.2933 0.666667 8 0.666667C3.95667 0.666667 0.666667 3.95667 0.666667 8C0.666667 8.55067 0.724667 9.08667 0.838667 9.594C0.879333 9.77333 0.766 9.952 0.586 9.992C0.561333 9.99733 0.537333 10 0.513333 10Z" fill="#717784"/>
<path d="M7.99941 16.0003C5.49674 16.0003 3.18608 14.8596 1.66141 12.8696C1.54941 12.7236 1.57674 12.5143 1.72341 12.4023C1.86674 12.291 2.07874 12.3176 2.19008 12.4643C3.58874 14.2876 5.70608 15.3336 7.99941 15.3336C12.0427 15.3336 15.3327 12.0436 15.3327 8.0003C15.3327 7.44097 15.2727 6.9063 15.1547 6.41097C15.1121 6.23164 15.2227 6.0523 15.4014 6.00963C15.5821 5.96697 15.7601 6.07764 15.8034 6.25697C15.9334 6.8023 15.9994 7.38897 15.9994 8.0003C15.9994 12.4116 12.4107 16.0003 7.99941 16.0003Z" fill="#717784"/>
<path d="M1.70029 16C1.51763 16 1.36896 15.8527 1.36696 15.67L1.33363 12.3367C1.33296 12.248 1.36763 12.162 1.43029 12.0993C1.49229 12.0353 1.57763 12 1.66696 12H5.00029C5.18429 12 5.33363 12.1493 5.33363 12.3333C5.33363 12.5173 5.18429 12.6667 5.00029 12.6667H2.00363L2.03363 15.6633C2.03563 15.8473 1.88763 15.998 1.70363 16C1.70229 16 1.70163 16 1.70029 16Z" fill="#717784"/>
<path d="M14.3327 4H10.9993C10.8153 4 10.666 3.85067 10.666 3.66667C10.666 3.48267 10.8153 3.33333 10.9993 3.33333H13.9993V0.333333C13.9993 0.149333 14.1487 0 14.3327 0C14.5167 0 14.666 0.149333 14.666 0.333333V3.66667C14.666 3.85067 14.5167 4 14.3327 4Z" fill="#717784"/>
</g>
<defs>
<clipPath id="clip0">
<rect width="16" height="16" fill="white"/>
</clipPath>
</defs>
</svg>
