<svg width="28" height="28" viewBox="0 0 28 28" fill="none" xmlns="http://www.w3.org/2000/svg">
<path fill-rule="evenodd" clip-rule="evenodd" d="M26.8455 1.15515C26.1946 0.504274 25.1394 0.504274 24.4885 1.15515L14.0003 11.6433L3.51217 1.15515C2.8613 0.504274 1.80602 0.504274 1.15515 1.15515C0.504274 1.80602 0.504274 2.8613 1.15515 3.51217L11.6433 14.0003L1.15515 24.4885C0.504274 25.1393 0.504274 26.1946 1.15515 26.8455C1.80602 27.4964 2.8613 27.4964 3.51217 26.8455L14.0003 16.3573L24.4885 26.8455C25.1394 27.4964 26.1946 27.4964 26.8455 26.8455C27.4964 26.1946 27.4964 25.1393 26.8455 24.4885L16.3573 14.0003L26.8455 3.51217C27.4964 2.8613 27.4964 1.80602 26.8455 1.15515Z" fill="white"/>
</svg>
