<svg width="70" height="70" viewBox="0 0 70 70" fill="none" xmlns="http://www.w3.org/2000/svg">
<path d="M34.9999 0C15.7013 0 0 15.7013 0 34.9999C0 54.2985 15.7013 69.9999 34.9999 69.9999C54.2985 69.9999 69.9999 54.2985 69.9999 34.9999C69.9999 15.7013 54.2987 0 34.9999 0ZM34.9999 66.9564C17.3782 66.9564 3.04343 52.6217 3.04343 34.9999C3.04343 17.3782 17.3782 3.04343 34.9999 3.04343C52.6217 3.04343 66.9564 17.3782 66.9564 34.9999C66.9564 52.6217 52.6217 66.9564 34.9999 66.9564Z" fill="#00409E"/>
<path d="M29.916 33.479C20.2668 33.479 12.416 41.3298 12.416 50.979C12.416 51.7221 13.0191 52.3252 13.7622 52.3252C14.5053 52.3252 15.1084 51.722 15.1084 50.9789C15.1084 42.8131 21.7503 36.1713 29.916 36.1713C38.0818 36.1713 44.7236 42.8131 44.7236 50.9789C44.7236 51.722 45.3267 52.3251 46.0698 52.3251C46.8129 52.3251 47.416 51.722 47.416 50.9789C47.416 41.3298 39.5653 33.479 29.916 33.479Z" fill="#00409E"/>
<path d="M30.1028 11.9312C24.6139 11.9312 20.1488 16.3962 20.1488 21.8852C20.1488 27.3741 24.6138 31.8392 30.1028 31.8392C35.5918 31.8392 40.0568 27.374 40.0568 21.8852C40.0568 16.3963 35.5918 11.9312 30.1028 11.9312ZM30.1028 28.9951C26.1838 28.9951 22.9929 25.8041 22.9929 21.8852C22.9929 17.9662 26.1838 14.7752 30.1028 14.7752C34.0218 14.7752 37.2127 17.9662 37.2127 21.8852C37.2127 25.8041 34.0219 28.9951 30.1028 28.9951Z" fill="#00409E"/>
<path d="M64.5751 32.3748H57.2251V25.0248C57.2251 24.2898 56.7351 23.7998 56.0001 23.7998C55.2651 23.7998 54.7751 24.2898 54.7751 25.0248V32.3748H47.4251C46.6901 32.3748 46.2001 32.8648 46.2001 33.5998C46.2001 34.3348 46.6901 34.8248 47.4251 34.8248H54.7751V42.1748C54.7751 42.9098 55.2651 43.3998 56.0001 43.3998C56.7351 43.3998 57.2251 42.9098 57.2251 42.1748V34.8248H64.5751C65.3101 34.8248 65.8001 34.3348 65.8001 33.5998C65.8001 32.8648 65.3101 32.3748 64.5751 32.3748Z" fill="#00409E"/>
</svg>
