<svg width="269" height="56" viewBox="0 0 269 56" fill="none" xmlns="http://www.w3.org/2000/svg">
<path d="M8.83292 18.1042L14.731 1.13063H17.7084L10.0522 21.7081H7.64196L0 1.13063H2.96321L8.83292 18.1042Z" fill="white"/>
<path d="M22.9259 21.7081H20.303V6.41631H22.9259V21.7081ZM20.0903 2.36019C20.0903 1.9362 20.2179 1.57817 20.4731 1.28609C20.7377 0.99401 21.1253 0.847971 21.6357 0.847971C22.1461 0.847971 22.5336 0.99401 22.7983 1.28609C23.0629 1.57817 23.1953 1.9362 23.1953 2.36019C23.1953 2.78417 23.0629 3.13749 22.7983 3.42015C22.5336 3.70281 22.1461 3.84414 21.6357 3.84414C21.1253 3.84414 20.7377 3.70281 20.4731 3.42015C20.2179 3.13749 20.0903 2.78417 20.0903 2.36019Z" fill="white"/>
<path d="M34.5519 8.76237C34.1549 8.69641 33.7248 8.66344 33.2617 8.66344C31.5414 8.66344 30.3741 9.39363 29.7597 10.854V21.7081H27.1368V6.41631H29.6888L29.7314 8.18292C30.5915 6.81674 31.8108 6.13366 33.3893 6.13366C33.8997 6.13366 34.2872 6.19961 34.5519 6.33152V8.76237Z" fill="white"/>
<path d="M41.2439 2.71351V6.41631H44.1079V8.43731H41.2439V17.9205C41.2439 18.5329 41.3715 18.9945 41.6267 19.3055C41.8819 19.607 42.3167 19.7577 42.9311 19.7577C43.2336 19.7577 43.6495 19.7012 44.1788 19.5881V21.7081C43.4888 21.8965 42.8177 21.9907 42.1655 21.9907C40.9935 21.9907 40.1097 21.6374 39.5142 20.9307C38.9187 20.2241 38.621 19.2207 38.621 17.9205V8.43731H35.8279V6.41631H38.621V2.71351H41.2439Z" fill="white"/>
<path d="M56.6555 20.1958C55.6346 21.3924 54.1365 21.9907 52.161 21.9907C50.5258 21.9907 49.2781 21.5196 48.418 20.5774C47.5673 19.6258 47.1373 18.222 47.1278 16.3658V6.41631H49.7508V16.2952C49.7508 18.613 50.696 19.7719 52.5864 19.7719C54.5902 19.7719 55.9229 19.0275 56.5846 17.5389V6.41631H59.2075V21.7081H56.7122L56.6555 20.1958Z" fill="white"/>
<path d="M72.6767 21.7081C72.5254 21.4066 72.4025 20.8695 72.308 20.0969C71.0887 21.3594 69.6331 21.9907 67.9412 21.9907C66.4289 21.9907 65.1859 21.5667 64.2124 20.7188C63.2482 19.8614 62.7662 18.7778 62.7662 17.4682C62.7662 15.8759 63.3711 14.6416 64.581 13.7654C65.8003 12.8797 67.5111 12.4369 69.7134 12.4369H72.2655V11.2356C72.2655 10.3217 71.9914 9.5962 71.4432 9.05916C70.8949 8.51269 70.0868 8.23945 69.0187 8.23945C68.083 8.23945 67.2984 8.475 66.6652 8.94609C66.0319 9.41719 65.7152 9.98721 65.7152 10.6562H63.0781C63.0781 9.89299 63.3475 9.15809 63.8863 8.45144C64.4345 7.73538 65.1717 7.17007 66.098 6.7555C67.0338 6.34094 68.0593 6.13366 69.1747 6.13366C70.9422 6.13366 72.3269 6.57649 73.3288 7.46214C74.3307 8.33838 74.8506 9.5491 74.8884 11.0943V18.1324C74.8884 19.5363 75.068 20.6528 75.4272 21.4819V21.7081H72.6767ZM68.324 19.7153C69.1463 19.7153 69.9261 19.5033 70.6634 19.0793C71.4006 18.6554 71.9347 18.1042 72.2655 17.4258V14.2883H70.2097C66.996 14.2883 65.3891 15.2258 65.3891 17.1007C65.3891 17.9205 65.6632 18.5611 66.2115 19.0228C66.7597 19.4845 67.4639 19.7153 68.324 19.7153Z" fill="white"/>
<path d="M81.8498 21.7081H79.2269V0H81.8498V21.7081Z" fill="white"/>
<path d="M108.859 15.1787C108.604 17.3551 107.796 19.0369 106.435 20.2241C105.083 21.4018 103.282 21.9907 101.033 21.9907C98.5941 21.9907 96.6375 21.1192 95.163 19.3761C93.698 17.6331 92.9654 15.3012 92.9654 12.3804V10.4018C92.9654 8.48913 93.3057 6.80732 93.9862 5.35635C94.6762 3.90538 95.6498 2.79359 96.9069 2.021C98.164 1.23898 99.6197 0.847971 101.274 0.847971C103.467 0.847971 105.225 1.46039 106.548 2.68524C107.871 3.90067 108.642 5.58719 108.859 7.7448H106.123C105.886 6.10539 105.371 4.91823 104.577 4.18332C103.793 3.44842 102.692 3.08096 101.274 3.08096C99.5346 3.08096 98.1688 3.72165 97.1763 5.00303C96.1933 6.28441 95.7018 8.10754 95.7018 10.4724V12.4652C95.7018 14.6982 96.1697 16.4742 97.1054 17.7933C98.0412 19.1123 99.3503 19.7719 101.033 19.7719C102.545 19.7719 103.703 19.4327 104.506 18.7543C105.319 18.0665 105.858 16.8746 106.123 15.1787H108.859Z" fill="white"/>
<path d="M111.482 13.9209C111.482 12.4228 111.775 11.0754 112.361 9.87886C112.956 8.68228 113.779 7.75893 114.828 7.10882C115.887 6.45871 117.092 6.13366 118.443 6.13366C120.532 6.13366 122.219 6.85443 123.505 8.29598C124.8 9.73753 125.447 11.6549 125.447 14.0481V14.2318C125.447 15.7204 125.159 17.0583 124.582 18.2455C124.015 19.4232 123.198 20.3419 122.13 21.0014C121.071 21.6609 119.852 21.9907 118.472 21.9907C116.392 21.9907 114.705 21.2699 113.41 19.8284C112.125 18.3868 111.482 16.4789 111.482 14.1046V13.9209ZM114.119 14.2318C114.119 15.9277 114.511 17.2892 115.296 18.3162C116.09 19.3432 117.148 19.8567 118.472 19.8567C119.804 19.8567 120.863 19.3384 121.648 18.302C122.432 17.2562 122.824 15.7958 122.824 13.9209C122.824 12.2438 122.423 10.887 121.619 9.8506C120.825 8.80476 119.767 8.28185 118.443 8.28185C117.148 8.28185 116.104 8.79534 115.31 9.82233C114.516 10.8493 114.119 12.3191 114.119 14.2318Z" fill="white"/>
<path d="M131.218 6.41631L131.303 8.33838C132.475 6.86856 134.006 6.13366 135.897 6.13366C139.139 6.13366 140.774 7.95679 140.802 11.6031V21.7081H138.179V11.5889C138.17 10.4866 137.915 9.67158 137.414 9.14395C136.922 8.61633 136.152 8.35251 135.103 8.35251C134.252 8.35251 133.505 8.57864 132.862 9.03089C132.22 9.48314 131.719 10.0767 131.36 10.8116V21.7081H128.737V6.41631H131.218Z" fill="white"/>
<path d="M148.316 2.71351V6.41631H151.18V8.43731H148.316V17.9205C148.316 18.5329 148.444 18.9945 148.699 19.3055C148.955 19.607 149.389 19.7577 150.004 19.7577C150.306 19.7577 150.722 19.7012 151.251 19.5881V21.7081C150.561 21.8965 149.89 21.9907 149.238 21.9907C148.066 21.9907 147.182 21.6374 146.587 20.9307C145.991 20.2241 145.694 19.2207 145.694 17.9205V8.43731H142.9V6.41631H145.694V2.71351H148.316Z" fill="white"/>
<path d="M161.672 8.76237C161.275 8.69641 160.845 8.66344 160.382 8.66344C158.662 8.66344 157.494 9.39363 156.88 10.854V21.7081H154.257V6.41631H156.809L156.852 8.18292C157.712 6.81674 158.931 6.13366 160.51 6.13366C161.02 6.13366 161.408 6.19961 161.672 6.33152V8.76237Z" fill="white"/>
<path d="M173 21.7081C172.849 21.4066 172.726 20.8695 172.632 20.0969C171.413 21.3594 169.957 21.9907 168.265 21.9907C166.753 21.9907 165.51 21.5667 164.536 20.7188C163.572 19.8614 163.09 18.7778 163.09 17.4682C163.09 15.8759 163.695 14.6416 164.905 13.7654C166.124 12.8797 167.835 12.4369 170.037 12.4369H172.589V11.2356C172.589 10.3217 172.315 9.5962 171.767 9.05916C171.219 8.51269 170.411 8.23945 169.343 8.23945C168.407 8.23945 167.622 8.475 166.989 8.94609C166.356 9.41719 166.039 9.98721 166.039 10.6562H163.402C163.402 9.89299 163.671 9.15809 164.21 8.45144C164.758 7.73538 165.496 7.17007 166.422 6.7555C167.358 6.34094 168.383 6.13366 169.499 6.13366C171.266 6.13366 172.651 6.57649 173.653 7.46214C174.655 8.33838 175.174 9.5491 175.212 11.0943V18.1324C175.212 19.5363 175.392 20.6528 175.751 21.4819V21.7081H173ZM168.648 19.7153C169.47 19.7153 170.25 19.5033 170.987 19.0793C171.724 18.6554 172.258 18.1042 172.589 17.4258V14.2883H170.533C167.32 14.2883 165.713 15.2258 165.713 17.1007C165.713 17.9205 165.987 18.5611 166.535 19.0228C167.084 19.4845 167.788 19.7153 168.648 19.7153Z" fill="white"/>
<path d="M185.477 19.8567C186.413 19.8567 187.231 19.574 187.93 19.0087C188.629 18.4434 189.017 17.7367 189.093 16.8888H191.574C191.526 17.765 191.224 18.5988 190.666 19.3903C190.109 20.1817 189.362 20.813 188.426 21.2841C187.5 21.7552 186.517 21.9907 185.477 21.9907C183.388 21.9907 181.725 21.2982 180.486 19.9132C179.258 18.5187 178.643 16.6155 178.643 14.2035V13.7654C178.643 12.2767 178.917 10.953 179.466 9.79406C180.014 8.63517 180.798 7.73538 181.819 7.09469C182.849 6.454 184.064 6.13366 185.463 6.13366C187.183 6.13366 188.611 6.64715 189.745 7.67414C190.888 8.70112 191.498 10.0343 191.574 11.6737H189.093C189.017 10.6844 188.639 9.87415 187.958 9.24288C187.287 8.60219 186.455 8.28185 185.463 8.28185C184.13 8.28185 183.095 8.76237 182.358 9.7234C181.63 10.675 181.266 12.0553 181.266 13.8643V14.359C181.266 16.1209 181.63 17.4776 182.358 18.4292C183.086 19.3808 184.126 19.8567 185.477 19.8567Z" fill="white"/>
<path d="M200.889 21.9907C198.809 21.9907 197.117 21.3123 195.813 19.9556C194.509 18.5894 193.856 16.7663 193.856 14.4862V14.0057C193.856 12.4887 194.145 11.1367 194.721 9.94953C195.307 8.75294 196.12 7.82018 197.16 7.15122C198.209 6.47285 199.343 6.13366 200.563 6.13366C202.557 6.13366 204.107 6.78848 205.213 8.09812C206.319 9.40777 206.872 11.2827 206.872 13.723V14.8112H196.479C196.517 16.3187 196.957 17.5389 197.798 18.4716C198.649 19.395 199.726 19.8567 201.03 19.8567C201.957 19.8567 202.741 19.6682 203.384 19.2913C204.027 18.9145 204.589 18.4151 205.071 17.7933L206.673 19.0369C205.388 21.0061 203.46 21.9907 200.889 21.9907ZM200.563 8.28185C199.504 8.28185 198.615 8.66815 197.897 9.44074C197.179 10.2039 196.735 11.278 196.564 12.663H204.249V12.4652C204.173 11.1367 203.814 10.1097 203.171 9.38421C202.529 8.6493 201.659 8.28185 200.563 8.28185Z" fill="white"/>
<path d="M222.879 14.2318C222.879 16.559 222.345 18.4339 221.277 19.8567C220.209 21.2794 218.762 21.9907 216.938 21.9907C215.076 21.9907 213.611 21.4018 212.543 20.2241V27.5873H209.92V6.41631H212.316L212.444 8.11226C213.512 6.79319 214.996 6.13366 216.896 6.13366C218.739 6.13366 220.194 6.82617 221.263 8.21119C222.34 9.5962 222.879 11.523 222.879 13.9915V14.2318ZM220.256 13.935C220.256 12.2108 219.887 10.8493 219.15 9.8506C218.413 8.85187 217.401 8.35251 216.116 8.35251C214.528 8.35251 213.337 9.05445 212.543 10.4583V17.765C213.328 19.1594 214.528 19.8567 216.144 19.8567C217.401 19.8567 218.399 19.362 219.136 18.3727C219.883 17.374 220.256 15.8947 220.256 13.935Z" fill="white"/>
<path d="M229.784 2.71351V6.41631H232.648V8.43731H229.784V17.9205C229.784 18.5329 229.911 18.9945 230.166 19.3055C230.422 19.607 230.856 19.7577 231.471 19.7577C231.773 19.7577 232.189 19.7012 232.718 19.5881V21.7081C232.028 21.8965 231.357 21.9907 230.705 21.9907C229.533 21.9907 228.649 21.6374 228.054 20.9307C227.458 20.2241 227.161 19.2207 227.161 17.9205V8.43731H224.368V6.41631H227.161V2.71351H229.784Z" fill="white"/>
<path d="M238.574 21.7081H235.951V6.41631H238.574V21.7081ZM235.738 2.36019C235.738 1.9362 235.866 1.57817 236.121 1.28609C236.386 0.99401 236.773 0.847971 237.284 0.847971C237.794 0.847971 238.182 0.99401 238.446 1.28609C238.711 1.57817 238.843 1.9362 238.843 2.36019C238.843 2.78417 238.711 3.13749 238.446 3.42015C238.182 3.70281 237.794 3.84414 237.284 3.84414C236.773 3.84414 236.386 3.70281 236.121 3.42015C235.866 3.13749 235.738 2.78417 235.738 2.36019Z" fill="white"/>
<path d="M247.846 18.1607L251.646 6.41631H254.326L248.825 21.7081H246.826L241.268 6.41631H243.947L247.846 18.1607Z" fill="white"/>
<path d="M263.017 21.9907C260.937 21.9907 259.246 21.3123 257.941 19.9556C256.637 18.5894 255.985 16.7663 255.985 14.4862V14.0057C255.985 12.4887 256.273 11.1367 256.849 9.94953C257.435 8.75294 258.248 7.82018 259.288 7.15122C260.337 6.47285 261.471 6.13366 262.691 6.13366C264.685 6.13366 266.235 6.78848 267.341 8.09812C268.447 9.40777 269 11.2827 269 13.723V14.8112H258.608C258.645 16.3187 259.085 17.5389 259.926 18.4716C260.777 19.395 261.854 19.8567 263.159 19.8567C264.085 19.8567 264.869 19.6682 265.512 19.2913C266.155 18.9145 266.717 18.4151 267.199 17.7933L268.802 19.0369C267.516 21.0061 265.588 21.9907 263.017 21.9907ZM262.691 8.28185C261.632 8.28185 260.744 8.66815 260.025 9.44074C259.307 10.2039 258.863 11.278 258.693 12.663H266.377V12.4652C266.301 11.1367 265.942 10.1097 265.3 9.38421C264.657 8.6493 263.787 8.28185 262.691 8.28185Z" fill="white"/>
<path d="M17.1838 49.188C16.9286 51.3644 16.1204 53.0462 14.7593 54.2334C13.4077 55.4111 11.6071 56 9.35751 56C6.91889 56 4.96231 55.1285 3.4878 53.3854C2.02273 51.6424 1.2902 49.3105 1.2902 46.3897V44.4111C1.2902 42.4984 1.63048 40.8166 2.31102 39.3656C3.00102 37.9147 3.97458 36.8029 5.2317 36.0303C6.48882 35.2483 7.94443 34.8573 9.59853 34.8573C11.7914 34.8573 13.5495 35.4697 14.8728 36.6945C16.1961 37.91 16.9664 39.5965 17.1838 41.7541H14.4474C14.2111 40.1147 13.696 38.9275 12.902 38.1926C12.1175 37.4577 11.0163 37.0902 9.59853 37.0902C7.85936 37.0902 6.49354 37.7309 5.50108 39.0123C4.51807 40.2937 4.02656 42.1168 4.02656 44.4817V46.4745C4.02656 48.7075 4.49444 50.4835 5.43019 51.8025C6.36594 53.1216 7.67505 53.7811 9.35751 53.7811C10.8698 53.7811 12.0277 53.442 12.8311 52.7636C13.644 52.0758 14.1828 50.8839 14.4474 49.188H17.1838Z" fill="white"/>
<path d="M19.8067 47.9301C19.8067 46.4321 20.0997 45.0847 20.6858 43.8881C21.2812 42.6916 22.1036 41.7682 23.1527 41.1181C24.2114 40.468 25.4165 40.1429 26.7681 40.1429C28.857 40.1429 30.5442 40.8637 31.8297 42.3053C33.1246 43.7468 33.7721 45.6642 33.7721 48.0573V48.2411C33.7721 49.7297 33.4838 51.0676 32.9072 52.2548C32.3401 53.4325 31.5225 54.3512 30.4544 55.0107C29.3958 55.6702 28.1765 56 26.7965 56C24.7171 56 23.0299 55.2792 21.7349 53.8377C20.4495 52.3961 19.8067 50.4882 19.8067 48.1139V47.9301ZM22.4438 48.2411C22.4438 49.937 22.8361 51.2985 23.6206 52.3255C24.4146 53.3524 25.4732 53.8659 26.7965 53.8659C28.1292 53.8659 29.1879 53.3477 29.9724 52.3113C30.7569 51.2655 31.1492 49.8051 31.1492 47.9301C31.1492 46.253 30.7474 44.8963 29.944 43.8599C29.1501 42.8141 28.0914 42.2911 26.7681 42.2911C25.4732 42.2911 24.4288 42.8046 23.6348 43.8316C22.8408 44.8586 22.4438 46.3284 22.4438 48.2411Z" fill="white"/>
<path d="M39.5426 40.4256L39.6276 42.3477C40.7997 40.8778 42.3309 40.1429 44.2213 40.1429C47.4634 40.1429 49.0986 41.9661 49.1269 45.6124V55.7173H46.504V45.5982C46.4945 44.4959 46.2393 43.6809 45.7384 43.1532C45.2469 42.6256 44.4765 42.3618 43.4273 42.3618C42.5767 42.3618 41.83 42.5879 41.1872 43.0402C40.5445 43.4924 40.0435 44.086 39.6843 44.8209V55.7173H37.0614V40.4256H39.5426Z" fill="white"/>
<path d="M62.0148 51.6612C62.0148 50.9546 61.7454 50.4081 61.2066 50.0218C60.6773 49.6261 59.7463 49.2869 58.4135 49.0042C57.0903 48.7216 56.0364 48.3824 55.2518 47.9867C54.4768 47.591 53.9002 47.1199 53.5221 46.5734C53.1535 46.0269 52.9692 45.3768 52.9692 44.6231C52.9692 43.3699 53.4985 42.31 54.5571 41.4432C55.6252 40.5764 56.9863 40.1429 58.6404 40.1429C60.3796 40.1429 61.7879 40.5905 62.8654 41.4856C63.9524 42.3806 64.4959 43.5254 64.4959 44.9198H61.8588C61.8588 44.2038 61.5516 43.5866 60.9372 43.0684C60.3323 42.5502 59.5667 42.2911 58.6404 42.2911C57.6857 42.2911 56.939 42.4984 56.4003 42.913C55.8615 43.3275 55.5921 43.8693 55.5921 44.5383C55.5921 45.1695 55.8426 45.6453 56.3435 45.9657C56.8445 46.286 57.7472 46.5922 59.0515 46.8843C60.3654 47.1764 61.4287 47.525 62.2416 47.9301C63.0545 48.3353 63.6547 48.8252 64.0422 49.4C64.4392 49.9653 64.6377 50.6578 64.6377 51.4775C64.6377 52.8437 64.0895 53.9413 62.993 54.7704C61.8966 55.5901 60.4741 56 58.7255 56C57.4967 56 56.4097 55.7833 55.4645 55.3499C54.5193 54.9165 53.7773 54.3135 53.2386 53.5409C52.7092 52.7589 52.4446 51.9156 52.4446 51.0111H55.0675C55.1148 51.8873 55.4645 52.5846 56.1167 53.1028C56.7783 53.6115 57.6479 53.8659 58.7255 53.8659C59.7179 53.8659 60.5119 53.6681 61.1074 53.2724C61.7123 52.8672 62.0148 52.3302 62.0148 51.6612Z" fill="white"/>
<path d="M77.5255 54.2051C76.5047 55.4017 75.0066 56 73.0311 56C71.3959 56 70.1482 55.5289 69.2881 54.5867C68.4374 53.6351 68.0073 52.2312 67.9979 50.3751V40.4256H70.6208V50.3045C70.6208 52.6222 71.566 53.7811 73.4564 53.7811C75.4603 53.7811 76.793 53.0368 77.4547 51.5482V40.4256H80.0776V55.7173H77.5823L77.5255 54.2051Z" fill="white"/>
<path d="M86.9256 55.7173H84.3026V34.0093H86.9256V55.7173Z" fill="white"/>
<path d="M94.6951 36.7228V40.4256H97.5591V42.4466H94.6951V51.9297C94.6951 52.5422 94.8228 53.0038 95.078 53.3148C95.3332 53.6163 95.768 53.767 96.3823 53.767C96.6848 53.767 97.1007 53.7105 97.63 53.5974V55.7173C96.94 55.9058 96.2689 56 95.6167 56C94.4447 56 93.5609 55.6467 92.9654 54.94C92.3699 54.2334 92.0722 53.23 92.0722 51.9297V42.4466H89.2791V40.4256H92.0722V36.7228H94.6951Z" fill="white"/>
<path d="M110.107 55.7173C109.955 55.4158 109.833 54.8788 109.738 54.1062C108.519 55.3687 107.063 56 105.371 56C103.859 56 102.616 55.576 101.642 54.728C100.678 53.8707 100.196 52.7871 100.196 51.4775C100.196 49.8852 100.801 48.6509 102.011 47.7747C103.23 46.889 104.941 46.4462 107.143 46.4462H109.696V45.2449C109.696 44.331 109.421 43.6055 108.873 43.0684C108.325 42.522 107.517 42.2487 106.449 42.2487C105.513 42.2487 104.728 42.4843 104.095 42.9554C103.462 43.4265 103.145 43.9965 103.145 44.6655H100.508C100.508 43.9023 100.778 43.1674 101.316 42.4607C101.865 41.7447 102.602 41.1794 103.528 40.7648C104.464 40.3502 105.489 40.1429 106.605 40.1429C108.372 40.1429 109.757 40.5858 110.759 41.4714C111.761 42.3477 112.281 43.5584 112.318 45.1036V52.1417C112.318 53.5456 112.498 54.6621 112.857 55.4912V55.7173H110.107ZM105.754 53.7246C106.576 53.7246 107.356 53.5126 108.093 53.0886C108.831 52.6646 109.365 52.1135 109.696 51.4351V48.2976H107.64C104.426 48.2976 102.819 49.2351 102.819 51.11C102.819 51.9297 103.093 52.5704 103.641 53.0321C104.19 53.4938 104.894 53.7246 105.754 53.7246Z" fill="white"/>
<path d="M119.989 36.7228V40.4256H122.853V42.4466H119.989V51.9297C119.989 52.5422 120.116 53.0038 120.372 53.3148C120.627 53.6163 121.062 53.767 121.676 53.767C121.978 53.767 122.394 53.7105 122.924 53.5974V55.7173C122.234 55.9058 121.563 56 120.91 56C119.738 56 118.855 55.6467 118.259 54.94C117.664 54.2334 117.366 53.23 117.366 51.9297V42.4466H114.573V40.4256H117.366V36.7228H119.989Z" fill="white"/>
<path d="M128.779 55.7173H126.156V40.4256H128.779V55.7173ZM125.944 36.3695C125.944 35.9455 126.071 35.5875 126.326 35.2954C126.591 35.0033 126.979 34.8573 127.489 34.8573C127.999 34.8573 128.387 35.0033 128.652 35.2954C128.916 35.5875 129.049 35.9455 129.049 36.3695C129.049 36.7935 128.916 37.1468 128.652 37.4294C128.387 37.7121 127.999 37.8534 127.489 37.8534C126.979 37.8534 126.591 37.7121 126.326 37.4294C126.071 37.1468 125.944 36.7935 125.944 36.3695Z" fill="white"/>
<path d="M132.295 47.9301C132.295 46.4321 132.588 45.0847 133.174 43.8881C133.77 42.6916 134.592 41.7682 135.641 41.1181C136.7 40.468 137.905 40.1429 139.257 40.1429C141.346 40.1429 143.033 40.8637 144.318 42.3053C145.613 43.7468 146.261 45.6642 146.261 48.0573V48.2411C146.261 49.7297 145.972 51.0676 145.396 52.2548C144.829 53.4325 144.011 54.3512 142.943 55.0107C141.884 55.6702 140.665 56 139.285 56C137.206 56 135.518 55.2792 134.224 53.8377C132.938 52.3961 132.295 50.4882 132.295 48.1139V47.9301ZM134.932 48.2411C134.932 49.937 135.325 51.2985 136.109 52.3255C136.903 53.3524 137.962 53.8659 139.285 53.8659C140.618 53.8659 141.676 53.3477 142.461 52.3113C143.245 51.2655 143.638 49.8051 143.638 47.9301C143.638 46.253 143.236 44.8963 142.433 43.8599C141.639 42.8141 140.58 42.2911 139.257 42.2911C137.962 42.2911 136.917 42.8046 136.123 43.8316C135.329 44.8586 134.932 46.3284 134.932 48.2411Z" fill="white"/>
<path d="M152.031 40.4256L152.116 42.3477C153.288 40.8778 154.819 40.1429 156.71 40.1429C159.952 40.1429 161.587 41.9661 161.616 45.6124V55.7173H158.993V45.5982C158.983 44.4959 158.728 43.6809 158.227 43.1532C157.735 42.6256 156.965 42.3618 155.916 42.3618C155.065 42.3618 154.319 42.5879 153.676 43.0402C153.033 43.4924 152.532 44.086 152.173 44.8209V55.7173H149.55V40.4256H152.031Z" fill="white"/>
</svg>
